<?xml version="1.0" encoding="UTF-8"?>
<svg xmlns="http://www.w3.org/2000/svg" xmlns:xlink="http://www.w3.org/1999/xlink" width="889.81pt" height="202.2pt" viewBox="0 0 889.81 202.2" version="1.1">
<defs>
<clipPath id="clip1">
  <path d="M 885 130 L 889.808594 130 L 889.808594 140 L 885 140 Z M 885 130 "/>
</clipPath>
<clipPath id="clip2">
  <path d="M 8 101 L 194 101 L 194 202.199219 L 8 202.199219 Z M 8 101 "/>
</clipPath>
</defs>
<g id="surface1">
<path style=" stroke:none;fill-rule:nonzero;fill:rgb(54.499817%,77.2995%,25.498962%);fill-opacity:1;" d="M 603.320313 141.332031 L 616.070313 147.832031 C 616.070313 147.832031 543.320313 162.332031 516.820313 161.582031 C 516.820313 161.582031 591.070313 148.582031 603.320313 141.332031 "/>
<path style=" stroke:none;fill-rule:nonzero;fill:rgb(0%,44.299316%,72.898865%);fill-opacity:1;" d="M 410.070313 130.332031 L 400.320313 141.332031 C 400.320313 141.332031 427.238281 154.03125 493.320313 155.832031 C 493.320313 155.832031 552.34375 154.359375 603.246094 137.605469 C 603.769531 137.433594 604.296875 137.257813 604.820313 137.082031 L 663.570313 122.832031 L 638.070313 118.082031 L 635.695313 120.082031 L 635.570313 125.332031 C 635.570313 125.332031 595.945313 130.957031 568.320313 139.457031 C 540.695313 147.957031 498.195313 149.957031 498.195313 149.957031 C 498.195313 149.957031 432.070313 151.832031 410.070313 130.332031 "/>
<path style=" stroke:none;fill-rule:nonzero;fill:rgb(0%,44.299316%,72.898865%);fill-opacity:1;" d="M 576.652344 68.078125 L 583.734375 66.828125 L 586.277344 45.078125 C 583.007813 44.5625 579.738281 44.007813 576.464844 43.519531 C 567.074219 42.125 558.664063 40.601563 549.339844 42.621094 C 541.882813 44.234375 534.699219 47.019531 529.589844 52.953125 C 526.460938 56.589844 524.589844 61.578125 524.058594 66.328125 C 523.894531 67.777344 522.8125 83.578125 543.3125 92.828125 C 543.3125 92.828125 572.066406 101.578125 566.441406 113.246094 C 560.816406 124.914063 533.652344 120.246094 529.316406 95.246094 L 521.820313 98.246094 L 521.820313 121.582031 C 521.820313 121.582031 539.484375 126.582031 560.152344 125.914063 C 560.152344 125.914063 594.152344 120.582031 590.152344 96.246094 C 589.671875 93.308594 589.261719 90.699219 587.742188 88.03125 C 579.375 73.324219 559.003906 74.9375 548.945313 62.152344 C 546.902344 59.550781 546.300781 56.519531 548.152344 53.582031 C 555.722656 41.578125 571.820313 51.582031 573.484375 57.914063 C 573.484375 57.914063 575.484375 60.578125 576.652344 68.078125 "/>
<path style=" stroke:none;fill-rule:nonzero;fill:rgb(0%,44.299316%,72.898865%);fill-opacity:1;" d="M 855.652344 56.746094 C 855.652344 61.808594 851.546875 65.914063 846.484375 65.914063 C 841.421875 65.914063 837.320313 61.808594 837.320313 56.746094 C 837.320313 51.683594 841.421875 47.578125 846.484375 47.578125 C 851.546875 47.578125 855.652344 51.683594 855.652344 56.746094 "/>
<path style=" stroke:none;fill-rule:nonzero;fill:rgb(54.499817%,77.2995%,25.498962%);fill-opacity:1;" d="M 386.652344 133.746094 C 386.652344 138.808594 382.546875 142.914063 377.484375 142.914063 C 372.421875 142.914063 368.320313 138.808594 368.320313 133.746094 C 368.320313 128.683594 372.421875 124.582031 377.484375 124.582031 C 382.546875 124.582031 386.652344 128.683594 386.652344 133.746094 "/>
<path style=" stroke:none;fill-rule:nonzero;fill:rgb(54.499817%,77.2995%,25.498962%);fill-opacity:1;" d="M 363.652344 133.746094 C 363.652344 138.808594 359.546875 142.914063 354.484375 142.914063 C 349.421875 142.914063 345.320313 138.808594 345.320313 133.746094 C 345.320313 128.683594 349.421875 124.582031 354.484375 124.582031 C 359.546875 124.582031 363.652344 128.683594 363.652344 133.746094 "/>
<path style=" stroke:none;fill-rule:nonzero;fill:rgb(54.499817%,77.2995%,25.498962%);fill-opacity:1;" d="M 260.652344 54.746094 C 260.652344 59.808594 256.546875 63.914063 251.484375 63.914063 C 246.421875 63.914063 242.320313 59.808594 242.320313 54.746094 C 242.320313 49.683594 246.421875 45.578125 251.484375 45.578125 C 256.546875 45.578125 260.652344 49.683594 260.652344 54.746094 "/>
<path style=" stroke:none;fill-rule:nonzero;fill:rgb(54.499817%,77.2995%,25.498962%);fill-opacity:1;" d="M 519.820313 69.578125 L 519.820313 122.582031 C 519.820313 122.582031 497.820313 125.246094 487.820313 114.414063 L 487.820313 122.582031 C 487.820313 122.582031 462.820313 125.246094 454.820313 114.746094 L 454.820313 122.582031 L 406.570313 122.082031 C 406.570313 122.082031 400.820313 119.914063 396.820313 115.914063 L 396.820313 122.582031 L 358.820313 122.582031 C 358.820313 122.582031 350.820313 120.246094 346.820313 114.246094 L 346.820313 122.582031 L 305.152344 122.882813 C 305.152344 122.882813 295.152344 119.746094 294.820313 109.414063 C 294.484375 99.078125 293.652344 42.746094 293.652344 42.746094 C 293.652344 42.746094 300.152344 34.246094 310.820313 29.414063 L 311.402344 98.246094 L 328.820313 97.746094 L 328.820313 39.578125 C 328.820313 39.578125 334.984375 32.078125 344.984375 27.914063 L 345.652344 98.914063 L 378.652344 98.746094 L 378.820313 76.578125 C 378.820313 76.578125 387.484375 68.078125 395.152344 67.578125 L 395.484375 98.414063 L 437.570313 98.332031 L 437.320313 77.914063 C 437.320313 77.914063 446.984375 68.246094 454.152344 67.914063 L 454.570313 98.578125 L 469.820313 98.414063 L 469.820313 78.578125 C 469.820313 78.578125 477.652344 70.746094 486.320313 69.246094 L 486.820313 98.246094 L 502.820313 98.078125 L 502.652344 78.246094 C 502.652344 78.246094 511.820313 68.914063 519.820313 69.578125 "/>
<path style=" stroke:none;fill-rule:nonzero;fill:rgb(54.499817%,77.2995%,25.498962%);fill-opacity:1;" d="M 257.820313 65.578125 L 257.820313 98.578125 L 283.820313 98.578125 C 283.820313 98.578125 287.820313 97.828125 287.820313 103.082031 L 287.820313 122.582031 C 287.820313 122.582031 284.320313 147.082031 255.070313 148.753906 C 253.464844 148.84375 216.316406 150.832031 216.320313 110.082031 C 216.320313 110.082031 221.070313 140.179688 248.820313 139.429688 C 249.570313 139.40625 266.320313 140.582031 271.320313 122.582031 L 241.820313 122.582031 C 241.820313 122.582031 232.820313 118.058594 231.820313 104.941406 L 231.820313 98.578125 L 241.820313 98.828125 L 241.820313 75.578125 "/>
<path style=" stroke:none;fill-rule:nonzero;fill:rgb(0%,0%,0%);fill-opacity:1;" d="M 688.875 139.832031 L 685.535156 129.808594 L 687.242188 129.808594 L 689.15625 136.378906 C 689.363281 137.066406 689.539063 137.75 689.6875 138.429688 C 690.011719 137.355469 690.199219 136.738281 690.257813 136.574219 L 692.652344 129.808594 L 694.660156 129.808594 L 696.464844 134.882813 C 696.917969 136.140625 697.242188 137.320313 697.441406 138.429688 C 697.601563 137.792969 697.8125 137.066406 698.070313 136.246094 L 700.046875 129.808594 L 701.71875 129.808594 L 698.269531 139.832031 L 696.660156 139.832031 L 694.007813 132.195313 C 693.785156 131.558594 693.652344 131.164063 693.613281 131.019531 C 693.480469 131.476563 693.359375 131.871094 693.242188 132.195313 L 690.574219 139.832031 "/>
<path style=" stroke:none;fill-rule:nonzero;fill:rgb(0%,0%,0%);fill-opacity:1;" d="M 704.101563 135.503906 L 709.195313 135.503906 C 709.125 134.894531 708.929688 134.433594 708.609375 134.128906 C 708.117188 133.65625 707.480469 133.417969 706.695313 133.417969 C 705.984375 133.417969 705.390625 133.605469 704.90625 133.984375 C 704.421875 134.363281 704.152344 134.867188 704.101563 135.503906 M 709.175781 137.492188 L 710.773438 137.648438 C 710.519531 138.394531 710.054688 138.96875 709.371094 139.378906 C 708.691406 139.789063 707.824219 139.992188 706.765625 139.992188 C 705.429688 139.992188 704.371094 139.667969 703.589844 139.015625 C 702.808594 138.359375 702.417969 137.441406 702.417969 136.261719 C 702.417969 135.039063 702.8125 134.09375 703.605469 133.417969 C 704.394531 132.742188 705.417969 132.40625 706.675781 132.40625 C 707.898438 132.40625 708.894531 132.734375 709.664063 133.398438 C 710.4375 134.058594 710.824219 134.988281 710.824219 136.1875 C 710.824219 136.261719 710.824219 136.367188 710.816406 136.515625 L 704.015625 136.515625 C 704.074219 137.3125 704.355469 137.921875 704.867188 138.347656 C 705.375 138.769531 706.011719 138.980469 706.773438 138.980469 C 707.339844 138.980469 707.824219 138.863281 708.222656 138.628906 C 708.621094 138.390625 708.941406 138.011719 709.175781 137.492188 "/>
<path style=" stroke:none;fill-rule:nonzero;fill:rgb(0%,0%,0%);fill-opacity:1;" d="M 712.855469 139.832031 L 714.398438 139.832031 L 714.398438 129.808594 L 712.855469 129.808594 Z M 712.855469 139.832031 "/>
<path style=" stroke:none;fill-rule:nonzero;fill:rgb(0%,0%,0%);fill-opacity:1;" d="M 717.34375 139.832031 L 717.34375 133.527344 L 715.976563 133.527344 L 715.976563 132.570313 L 717.34375 132.570313 L 717.34375 131.796875 C 717.34375 131.308594 717.398438 130.949219 717.503906 130.710938 C 717.652344 130.390625 717.914063 130.132813 718.289063 129.933594 C 718.664063 129.734375 719.191406 129.636719 719.867188 129.636719 C 720.300781 129.636719 720.78125 129.679688 721.308594 129.761719 L 721.078125 130.835938 C 720.757813 130.789063 720.453125 130.765625 720.167969 130.765625 C 719.695313 130.765625 719.363281 130.847656 719.171875 131.003906 C 718.976563 131.164063 718.878906 131.464844 718.878906 131.898438 L 718.878906 132.570313 L 720.65625 132.570313 L 720.65625 133.527344 L 718.878906 133.527344 L 718.878906 139.832031 "/>
<path style=" stroke:none;fill-rule:nonzero;fill:rgb(0%,0%,0%);fill-opacity:1;" d="M 727.855469 136.1875 C 727.296875 136.367188 726.453125 136.523438 725.332031 136.652344 C 724.695313 136.722656 724.246094 136.804688 723.984375 136.898438 C 723.71875 136.988281 723.515625 137.121094 723.375 137.296875 C 723.230469 137.472656 723.160156 137.667969 723.160156 137.882813 C 723.160156 138.210938 723.3125 138.484375 723.628906 138.703125 C 723.9375 138.921875 724.394531 139.03125 724.996094 139.03125 C 725.589844 139.03125 726.121094 138.925781 726.585938 138.71875 C 727.046875 138.511719 727.386719 138.226563 727.605469 137.867188 C 727.773438 137.589844 727.855469 137.179688 727.855469 136.636719 Z M 727.984375 138.933594 C 727.414063 139.324219 726.859375 139.59375 726.332031 139.753906 C 725.800781 139.914063 725.234375 139.992188 724.628906 139.992188 C 723.625 139.992188 722.855469 139.796875 722.316406 139.410156 C 721.777344 139.019531 721.511719 138.523438 721.511719 137.914063 C 721.511719 137.558594 721.613281 137.234375 721.816406 136.941406 C 722.019531 136.648438 722.285156 136.410156 722.613281 136.234375 C 722.941406 136.054688 723.3125 135.921875 723.726563 135.832031 C 724.027344 135.765625 724.488281 135.707031 725.097656 135.648438 C 726.347656 135.527344 727.265625 135.386719 727.855469 135.222656 C 727.859375 135.054688 727.863281 134.949219 727.863281 134.902344 C 727.863281 134.402344 727.71875 134.046875 727.425781 133.839844 C 727.03125 133.5625 726.445313 133.425781 725.664063 133.425781 C 724.9375 133.425781 724.402344 133.527344 724.054688 133.726563 C 723.710938 133.929688 723.453125 134.289063 723.289063 134.804688 L 721.777344 134.640625 C 721.914063 134.125 722.140625 133.710938 722.453125 133.394531 C 722.769531 133.078125 723.222656 132.832031 723.820313 132.660156 C 724.414063 132.492188 725.105469 132.40625 725.890625 132.40625 C 726.667969 132.40625 727.300781 132.480469 727.789063 132.625 C 728.273438 132.769531 728.628906 132.953125 728.859375 133.175781 C 729.089844 133.398438 729.25 133.675781 729.339844 134.011719 C 729.390625 134.222656 729.417969 134.601563 729.417969 135.148438 L 729.417969 136.789063 C 729.417969 137.929688 729.453125 138.65625 729.515625 138.957031 C 729.582031 139.261719 729.714844 139.550781 729.90625 139.832031 L 728.292969 139.832031 C 728.132813 139.574219 728.03125 139.277344 727.984375 138.933594 "/>
<path style=" stroke:none;fill-rule:nonzero;fill:rgb(0%,0%,0%);fill-opacity:1;" d="M 731.972656 139.832031 L 731.972656 132.570313 L 733.363281 132.570313 L 733.363281 133.671875 C 733.71875 133.15625 734.046875 132.816406 734.347656 132.652344 C 734.648438 132.488281 734.980469 132.40625 735.339844 132.40625 C 735.859375 132.40625 736.390625 132.539063 736.929688 132.800781 L 736.394531 133.945313 C 736.019531 133.765625 735.640625 133.675781 735.261719 133.675781 C 734.921875 133.675781 734.621094 133.757813 734.351563 133.917969 C 734.082031 134.082031 733.890625 134.308594 733.777344 134.59375 C 733.605469 135.03125 733.519531 135.511719 733.519531 136.027344 L 733.519531 139.832031 "/>
<path style=" stroke:none;fill-rule:nonzero;fill:rgb(0%,0%,0%);fill-opacity:1;" d="M 739.1875 135.503906 L 744.28125 135.503906 C 744.210938 134.894531 744.019531 134.433594 743.695313 134.128906 C 743.203125 133.65625 742.566406 133.417969 741.78125 133.417969 C 741.070313 133.417969 740.476563 133.605469 739.992188 133.984375 C 739.507813 134.363281 739.242188 134.867188 739.1875 135.503906 M 744.261719 137.492188 L 745.859375 137.648438 C 745.609375 138.394531 745.144531 138.96875 744.460938 139.378906 C 743.78125 139.789063 742.910156 139.992188 741.851563 139.992188 C 740.519531 139.992188 739.460938 139.667969 738.679688 139.015625 C 737.894531 138.359375 737.503906 137.441406 737.503906 136.261719 C 737.503906 135.039063 737.902344 134.09375 738.691406 133.417969 C 739.480469 132.742188 740.503906 132.40625 741.765625 132.40625 C 742.984375 132.40625 743.980469 132.734375 744.753906 133.398438 C 745.527344 134.058594 745.914063 134.988281 745.914063 136.1875 C 745.914063 136.261719 745.910156 136.367188 745.902344 136.515625 L 739.105469 136.515625 C 739.160156 137.3125 739.445313 137.921875 739.953125 138.347656 C 740.464844 138.769531 741.097656 138.980469 741.859375 138.980469 C 742.425781 138.980469 742.910156 138.863281 743.3125 138.628906 C 743.710938 138.390625 744.027344 138.011719 744.261719 137.492188 "/>
<path style=" stroke:none;fill-rule:nonzero;fill:rgb(0%,0%,0%);fill-opacity:1;" d="M 753.046875 132.570313 L 754.59375 132.570313 L 754.59375 139.828125 L 753.046875 139.828125 Z M 753.046875 129.808594 L 754.59375 129.808594 L 754.59375 131.222656 L 753.046875 131.222656 Z M 753.046875 129.808594 "/>
<path style=" stroke:none;fill-rule:nonzero;fill:rgb(0%,0%,0%);fill-opacity:1;" d="M 757.121094 139.832031 L 757.121094 132.570313 L 758.511719 132.570313 L 758.511719 133.601563 C 759.183594 132.804688 760.148438 132.40625 761.414063 132.40625 C 761.964844 132.40625 762.46875 132.484375 762.929688 132.644531 C 763.390625 132.796875 763.734375 133.007813 763.964844 133.261719 C 764.191406 133.515625 764.351563 133.820313 764.445313 134.167969 C 764.503906 134.398438 764.53125 134.796875 764.53125 135.367188 L 764.53125 139.832031 L 762.984375 139.832031 L 762.984375 135.414063 C 762.984375 134.914063 762.925781 134.539063 762.804688 134.289063 C 762.683594 134.039063 762.472656 133.84375 762.164063 133.695313 C 761.859375 133.546875 761.5 133.472656 761.089844 133.472656 C 760.429688 133.472656 759.859375 133.640625 759.382813 133.972656 C 758.90625 134.304688 758.667969 134.933594 758.667969 135.863281 L 758.667969 139.832031 "/>
<path style=" stroke:none;fill-rule:nonzero;fill:rgb(0%,0%,0%);fill-opacity:1;" d="M 770.449219 138.730469 L 770.675781 139.816406 C 770.238281 139.890625 769.851563 139.925781 769.507813 139.925781 C 768.945313 139.925781 768.511719 139.855469 768.203125 139.714844 C 767.890625 139.574219 767.675781 139.386719 767.550781 139.15625 C 767.425781 138.925781 767.359375 138.441406 767.359375 137.703125 L 767.359375 133.527344 L 766.226563 133.527344 L 766.226563 132.570313 L 767.359375 132.570313 L 767.359375 130.773438 L 768.898438 130.035156 L 768.898438 132.570313 L 770.449219 132.570313 L 770.449219 133.527344 L 768.898438 133.527344 L 768.898438 137.773438 C 768.898438 138.125 768.925781 138.347656 768.980469 138.449219 C 769.03125 138.550781 769.121094 138.628906 769.246094 138.6875 C 769.367188 138.75 769.542969 138.777344 769.773438 138.777344 C 769.945313 138.777344 770.171875 138.761719 770.449219 138.730469 "/>
<path style=" stroke:none;fill-rule:nonzero;fill:rgb(0%,0%,0%);fill-opacity:1;" d="M 773.308594 135.503906 L 778.398438 135.503906 C 778.328125 134.894531 778.136719 134.433594 777.8125 134.128906 C 777.324219 133.65625 776.683594 133.417969 775.898438 133.417969 C 775.1875 133.417969 774.59375 133.605469 774.109375 133.984375 C 773.625 134.363281 773.359375 134.867188 773.308594 135.503906 M 778.378906 137.492188 L 779.980469 137.648438 C 779.726563 138.394531 779.261719 138.96875 778.578125 139.378906 C 777.898438 139.789063 777.027344 139.992188 775.96875 139.992188 C 774.636719 139.992188 773.578125 139.667969 772.796875 139.015625 C 772.015625 138.359375 771.621094 137.441406 771.621094 136.261719 C 771.621094 135.039063 772.019531 134.09375 772.808594 133.417969 C 773.597656 132.742188 774.621094 132.40625 775.882813 132.40625 C 777.101563 132.40625 778.097656 132.734375 778.871094 133.398438 C 779.644531 134.058594 780.03125 134.988281 780.03125 136.1875 C 780.03125 136.261719 780.027344 136.367188 780.019531 136.515625 L 773.222656 136.515625 C 773.277344 137.3125 773.5625 137.921875 774.070313 138.347656 C 774.578125 138.769531 775.214844 138.980469 775.976563 138.980469 C 776.542969 138.980469 777.027344 138.863281 777.429688 138.628906 C 777.828125 138.390625 778.144531 138.011719 778.378906 137.492188 "/>
<path style=" stroke:none;fill-rule:nonzero;fill:rgb(0%,0%,0%);fill-opacity:1;" d="M 782.078125 139.832031 L 782.078125 132.570313 L 783.46875 132.570313 L 783.46875 133.671875 C 783.824219 133.15625 784.152344 132.816406 784.453125 132.652344 C 784.753906 132.488281 785.082031 132.40625 785.441406 132.40625 C 785.964844 132.40625 786.492188 132.539063 787.03125 132.800781 L 786.5 133.945313 C 786.121094 133.765625 785.742188 133.675781 785.367188 133.675781 C 785.027344 133.675781 784.722656 133.757813 784.457031 133.917969 C 784.1875 134.082031 783.996094 134.308594 783.882813 134.59375 C 783.710938 135.03125 783.621094 135.511719 783.621094 136.027344 L 783.621094 139.832031 "/>
<path style=" stroke:none;fill-rule:nonzero;fill:rgb(0%,0%,0%);fill-opacity:1;" d="M 788.125 139.832031 L 788.125 132.570313 L 789.515625 132.570313 L 789.515625 133.601563 C 790.1875 132.804688 791.152344 132.40625 792.417969 132.40625 C 792.96875 132.40625 793.472656 132.484375 793.933594 132.644531 C 794.394531 132.796875 794.738281 133.007813 794.96875 133.261719 C 795.199219 133.515625 795.359375 133.820313 795.449219 134.167969 C 795.507813 134.398438 795.535156 134.796875 795.535156 135.367188 L 795.535156 139.832031 L 793.988281 139.832031 L 793.988281 135.414063 C 793.988281 134.914063 793.929688 134.539063 793.8125 134.289063 C 793.6875 134.039063 793.476563 133.84375 793.171875 133.695313 C 792.863281 133.546875 792.503906 133.472656 792.09375 133.472656 C 791.433594 133.472656 790.867188 133.640625 790.390625 133.972656 C 789.910156 134.304688 789.671875 134.933594 789.671875 135.863281 L 789.671875 139.832031 "/>
<path style=" stroke:none;fill-rule:nonzero;fill:rgb(0%,0%,0%);fill-opacity:1;" d="M 803.902344 136.1875 C 803.34375 136.367188 802.5 136.523438 801.378906 136.652344 C 800.742188 136.722656 800.292969 136.804688 800.03125 136.898438 C 799.765625 136.988281 799.5625 137.121094 799.421875 137.296875 C 799.277344 137.472656 799.207031 137.667969 799.207031 137.882813 C 799.207031 138.210938 799.363281 138.484375 799.675781 138.703125 C 799.984375 138.921875 800.441406 139.03125 801.042969 139.03125 C 801.640625 139.03125 802.167969 138.925781 802.632813 138.71875 C 803.097656 138.511719 803.4375 138.226563 803.652344 137.867188 C 803.820313 137.589844 803.902344 137.179688 803.902344 136.636719 Z M 804.03125 138.933594 C 803.460938 139.324219 802.910156 139.59375 802.378906 139.753906 C 801.847656 139.914063 801.28125 139.992188 800.675781 139.992188 C 799.671875 139.992188 798.902344 139.796875 798.363281 139.410156 C 797.828125 139.019531 797.558594 138.523438 797.558594 137.914063 C 797.558594 137.558594 797.660156 137.234375 797.863281 136.941406 C 798.066406 136.648438 798.332031 136.410156 798.660156 136.234375 C 798.988281 136.054688 799.359375 135.921875 799.773438 135.832031 C 800.078125 135.765625 800.535156 135.707031 801.148438 135.648438 C 802.394531 135.527344 803.3125 135.386719 803.902344 135.222656 C 803.910156 135.054688 803.910156 134.949219 803.910156 134.902344 C 803.910156 134.402344 803.765625 134.046875 803.472656 133.839844 C 803.078125 133.5625 802.492188 133.425781 801.714844 133.425781 C 800.988281 133.425781 800.449219 133.527344 800.105469 133.726563 C 799.757813 133.929688 799.503906 134.289063 799.335938 134.804688 L 797.824219 134.640625 C 797.960938 134.125 798.1875 133.710938 798.503906 133.394531 C 798.816406 133.078125 799.273438 132.832031 799.867188 132.660156 C 800.464844 132.492188 801.152344 132.40625 801.9375 132.40625 C 802.714844 132.40625 803.347656 132.480469 803.835938 132.625 C 804.320313 132.769531 804.679688 132.953125 804.90625 133.175781 C 805.136719 133.398438 805.296875 133.675781 805.386719 134.011719 C 805.441406 134.222656 805.464844 134.601563 805.464844 135.148438 L 805.464844 136.789063 C 805.464844 137.929688 805.5 138.65625 805.566406 138.957031 C 805.632813 139.261719 805.761719 139.550781 805.957031 139.832031 L 804.339844 139.832031 C 804.179688 139.574219 804.078125 139.277344 804.03125 138.933594 "/>
<path style=" stroke:none;fill-rule:nonzero;fill:rgb(0%,0%,0%);fill-opacity:1;" d="M 811.410156 138.730469 L 811.636719 139.816406 C 811.199219 139.890625 810.8125 139.925781 810.46875 139.925781 C 809.90625 139.925781 809.472656 139.855469 809.164063 139.714844 C 808.851563 139.574219 808.636719 139.386719 808.511719 139.15625 C 808.386719 138.925781 808.320313 138.441406 808.320313 137.703125 L 808.320313 133.527344 L 807.1875 133.527344 L 807.1875 132.570313 L 808.320313 132.570313 L 808.320313 130.773438 L 809.859375 130.035156 L 809.859375 132.570313 L 811.410156 132.570313 L 811.410156 133.527344 L 809.859375 133.527344 L 809.859375 137.773438 C 809.859375 138.125 809.886719 138.347656 809.941406 138.449219 C 809.992188 138.550781 810.082031 138.628906 810.207031 138.6875 C 810.328125 138.75 810.503906 138.777344 810.734375 138.777344 C 810.90625 138.777344 811.132813 138.761719 811.410156 138.730469 "/>
<path style=" stroke:none;fill-rule:nonzero;fill:rgb(0%,0%,0%);fill-opacity:1;" d="M 813.109375 132.570313 L 814.652344 132.570313 L 814.652344 139.828125 L 813.109375 139.828125 Z M 813.109375 129.808594 L 814.652344 129.808594 L 814.652344 131.222656 L 813.109375 131.222656 Z M 813.109375 129.808594 "/>
<path style=" stroke:none;fill-rule:nonzero;fill:rgb(0%,0%,0%);fill-opacity:1;" d="M 818.195313 136.199219 C 818.195313 137.128906 818.449219 137.828125 818.960938 138.289063 C 819.46875 138.75 820.109375 138.980469 820.882813 138.980469 C 821.648438 138.980469 822.285156 138.75 822.796875 138.285156 C 823.304688 137.820313 823.5625 137.109375 823.5625 136.160156 C 823.5625 135.261719 823.304688 134.582031 822.792969 134.117188 C 822.28125 133.65625 821.644531 133.425781 820.882813 133.425781 C 820.109375 133.425781 819.46875 133.65625 818.960938 134.113281 C 818.449219 134.574219 818.195313 135.269531 818.195313 136.199219 M 816.605469 136.199219 C 816.605469 134.855469 817.074219 133.859375 818.015625 133.214844 C 818.796875 132.675781 819.753906 132.40625 820.882813 132.40625 C 822.136719 132.40625 823.160156 132.734375 823.957031 133.386719 C 824.753906 134.039063 825.148438 134.945313 825.148438 136.097656 C 825.148438 137.03125 824.972656 137.765625 824.621094 138.304688 C 824.269531 138.839844 823.757813 139.253906 823.085938 139.550781 C 822.410156 139.847656 821.675781 139.992188 820.882813 139.992188 C 819.605469 139.992188 818.574219 139.667969 817.785156 139.015625 C 817 138.363281 816.605469 137.425781 816.605469 136.199219 "/>
<path style=" stroke:none;fill-rule:nonzero;fill:rgb(0%,0%,0%);fill-opacity:1;" d="M 827.136719 139.832031 L 827.136719 132.570313 L 828.527344 132.570313 L 828.527344 133.601563 C 829.199219 132.804688 830.164063 132.40625 831.429688 132.40625 C 831.980469 132.40625 832.484375 132.484375 832.945313 132.644531 C 833.40625 132.796875 833.753906 133.007813 833.980469 133.261719 C 834.210938 133.515625 834.371094 133.820313 834.460938 134.167969 C 834.519531 134.398438 834.546875 134.796875 834.546875 135.367188 L 834.546875 139.832031 L 833.003906 139.832031 L 833.003906 135.414063 C 833.003906 134.914063 832.941406 134.539063 832.824219 134.289063 C 832.699219 134.039063 832.488281 133.84375 832.183594 133.695313 C 831.875 133.546875 831.515625 133.472656 831.105469 133.472656 C 830.445313 133.472656 829.878906 133.640625 829.402344 133.972656 C 828.921875 134.304688 828.683594 134.933594 828.683594 135.863281 L 828.683594 139.832031 "/>
<path style=" stroke:none;fill-rule:nonzero;fill:rgb(0%,0%,0%);fill-opacity:1;" d="M 842.914063 136.1875 C 842.355469 136.367188 841.511719 136.523438 840.390625 136.652344 C 839.757813 136.722656 839.304688 136.804688 839.042969 136.898438 C 838.777344 136.988281 838.574219 137.121094 838.433594 137.296875 C 838.289063 137.472656 838.21875 137.667969 838.21875 137.882813 C 838.21875 138.210938 838.375 138.484375 838.6875 138.703125 C 838.996094 138.921875 839.453125 139.03125 840.054688 139.03125 C 840.652344 139.03125 841.179688 138.925781 841.644531 138.71875 C 842.109375 138.511719 842.449219 138.226563 842.664063 137.867188 C 842.832031 137.589844 842.914063 137.179688 842.914063 136.636719 Z M 843.042969 138.933594 C 842.472656 139.324219 841.921875 139.59375 841.390625 139.753906 C 840.859375 139.914063 840.292969 139.992188 839.6875 139.992188 C 838.683594 139.992188 837.914063 139.796875 837.378906 139.410156 C 836.839844 139.019531 836.570313 138.523438 836.570313 137.914063 C 836.570313 137.558594 836.671875 137.234375 836.875 136.941406 C 837.078125 136.648438 837.34375 136.410156 837.671875 136.234375 C 838.003906 136.054688 838.371094 135.921875 838.785156 135.832031 C 839.089844 135.765625 839.546875 135.707031 840.160156 135.648438 C 841.40625 135.527344 842.324219 135.386719 842.914063 135.222656 C 842.921875 135.054688 842.925781 134.949219 842.925781 134.902344 C 842.925781 134.402344 842.777344 134.046875 842.484375 133.839844 C 842.089844 133.5625 841.503906 133.425781 840.726563 133.425781 C 840 133.425781 839.460938 133.527344 839.117188 133.726563 C 838.769531 133.929688 838.515625 134.289063 838.347656 134.804688 L 836.835938 134.640625 C 836.972656 134.125 837.199219 133.710938 837.515625 133.394531 C 837.828125 133.078125 838.285156 132.832031 838.878906 132.660156 C 839.476563 132.492188 840.164063 132.40625 840.949219 132.40625 C 841.726563 132.40625 842.359375 132.480469 842.847656 132.625 C 843.332031 132.769531 843.691406 132.953125 843.921875 133.175781 C 844.148438 133.398438 844.308594 133.675781 844.398438 134.011719 C 844.453125 134.222656 844.476563 134.601563 844.476563 135.148438 L 844.476563 136.789063 C 844.476563 137.929688 844.511719 138.65625 844.578125 138.957031 C 844.644531 139.261719 844.773438 139.550781 844.96875 139.832031 L 843.351563 139.832031 C 843.191406 139.574219 843.089844 139.277344 843.042969 138.933594 "/>
<path style=" stroke:none;fill-rule:nonzero;fill:rgb(0%,0%,0%);fill-opacity:1;" d="M 847.015625 139.832031 L 848.558594 139.832031 L 848.558594 129.808594 L 847.015625 129.808594 Z M 847.015625 139.832031 "/>
<path style=" stroke:none;fill-rule:nonzero;fill:rgb(0%,0%,0%);fill-opacity:1;" d="M 859.566406 138.730469 L 859.789063 139.816406 C 859.355469 139.890625 858.964844 139.925781 858.621094 139.925781 C 858.0625 139.925781 857.628906 139.855469 857.316406 139.714844 C 857.007813 139.574219 856.789063 139.386719 856.664063 139.15625 C 856.539063 138.925781 856.476563 138.441406 856.476563 137.703125 L 856.476563 133.527344 L 855.34375 133.527344 L 855.34375 132.570313 L 856.476563 132.570313 L 856.476563 130.773438 L 858.011719 130.035156 L 858.011719 132.570313 L 859.566406 132.570313 L 859.566406 133.527344 L 858.011719 133.527344 L 858.011719 137.773438 C 858.011719 138.125 858.039063 138.347656 858.09375 138.449219 C 858.148438 138.550781 858.238281 138.628906 858.359375 138.6875 C 858.484375 138.75 858.660156 138.777344 858.890625 138.777344 C 859.0625 138.777344 859.285156 138.761719 859.566406 138.730469 "/>
<path style=" stroke:none;fill-rule:nonzero;fill:rgb(0%,0%,0%);fill-opacity:1;" d="M 861.238281 139.832031 L 861.238281 132.570313 L 862.628906 132.570313 L 862.628906 133.671875 C 862.984375 133.15625 863.3125 132.816406 863.613281 132.652344 C 863.914063 132.488281 864.242188 132.40625 864.601563 132.40625 C 865.125 132.40625 865.652344 132.539063 866.191406 132.800781 L 865.660156 133.945313 C 865.28125 133.765625 864.902344 133.675781 864.527344 133.675781 C 864.1875 133.675781 863.882813 133.757813 863.617188 133.917969 C 863.347656 134.082031 863.15625 134.308594 863.039063 134.59375 C 862.867188 135.03125 862.78125 135.511719 862.78125 136.027344 L 862.78125 139.832031 "/>
<path style=" stroke:none;fill-rule:nonzero;fill:rgb(0%,0%,0%);fill-opacity:1;" d="M 873.261719 139.832031 L 873.261719 138.765625 C 872.554688 139.585938 871.589844 139.992188 870.367188 139.992188 C 869.828125 139.992188 869.328125 139.910156 868.863281 139.746094 C 868.394531 139.585938 868.050781 139.378906 867.824219 139.128906 C 867.597656 138.882813 867.4375 138.578125 867.347656 138.21875 C 867.285156 137.976563 867.253906 137.59375 867.253906 137.066406 L 867.253906 132.570313 L 868.796875 132.570313 L 868.796875 136.597656 C 868.796875 137.238281 868.828125 137.671875 868.890625 137.894531 C 868.988281 138.21875 869.195313 138.472656 869.511719 138.65625 C 869.824219 138.84375 870.214844 138.933594 870.679688 138.933594 C 871.140625 138.933594 871.574219 138.839844 871.984375 138.648438 C 872.390625 138.460938 872.675781 138.203125 872.847656 137.878906 C 873.015625 137.550781 873.097656 137.082031 873.097656 136.460938 L 873.097656 132.570313 L 874.644531 132.570313 L 874.644531 139.832031 "/>
<path style=" stroke:none;fill-rule:nonzero;fill:rgb(0%,0%,0%);fill-opacity:1;" d="M 876.625 137.664063 L 878.152344 137.472656 C 878.238281 137.960938 878.476563 138.332031 878.867188 138.59375 C 879.261719 138.851563 879.808594 138.980469 880.515625 138.980469 C 881.222656 138.980469 881.75 138.867188 882.09375 138.636719 C 882.4375 138.40625 882.609375 138.136719 882.609375 137.828125 C 882.609375 137.546875 882.457031 137.332031 882.152344 137.171875 C 881.941406 137.0625 881.414063 136.921875 880.574219 136.753906 C 879.441406 136.527344 878.652344 136.328125 878.21875 136.160156 C 877.777344 135.996094 877.445313 135.765625 877.222656 135.472656 C 876.992188 135.175781 876.882813 134.851563 876.882813 134.496094 C 876.882813 134.175781 876.976563 133.875 877.160156 133.601563 C 877.347656 133.324219 877.601563 133.09375 877.921875 132.910156 C 878.160156 132.769531 878.488281 132.652344 878.902344 132.550781 C 879.316406 132.457031 879.765625 132.40625 880.238281 132.40625 C 880.953125 132.40625 881.582031 132.488281 882.121094 132.652344 C 882.664063 132.816406 883.0625 133.039063 883.320313 133.316406 C 883.578125 133.601563 883.757813 133.972656 883.851563 134.441406 L 882.34375 134.605469 C 882.273438 134.234375 882.074219 133.941406 881.746094 133.730469 C 881.414063 133.523438 880.949219 133.417969 880.351563 133.417969 C 879.640625 133.417969 879.132813 133.511719 878.832031 133.699219 C 878.527344 133.886719 878.375 134.101563 878.375 134.355469 C 878.375 134.515625 878.4375 134.65625 878.5625 134.785156 C 878.691406 134.917969 878.886719 135.027344 879.15625 135.113281 C 879.3125 135.160156 879.765625 135.265625 880.523438 135.425781 C 881.613281 135.660156 882.378906 135.851563 882.8125 135.996094 C 883.242188 136.144531 883.582031 136.363281 883.828125 136.644531 C 884.074219 136.925781 884.195313 137.277344 884.195313 137.695313 C 884.195313 138.105469 884.046875 138.492188 883.746094 138.855469 C 883.445313 139.21875 883.011719 139.496094 882.445313 139.695313 C 881.878906 139.894531 881.238281 139.992188 880.523438 139.992188 C 879.335938 139.992188 878.433594 139.796875 877.8125 139.40625 C 877.191406 139.015625 876.796875 138.433594 876.625 137.664063 "/>
<g clip-path="url(#clip1)" clip-rule="nonzero">
<path style=" stroke:none;fill-rule:nonzero;fill:rgb(0%,0%,0%);fill-opacity:1;" d="M 889.585938 138.730469 L 889.808594 139.816406 C 889.371094 139.890625 888.984375 139.925781 888.640625 139.925781 C 888.078125 139.925781 887.644531 139.855469 887.335938 139.714844 C 887.027344 139.574219 886.808594 139.386719 886.683594 139.15625 C 886.558594 138.925781 886.492188 138.441406 886.492188 137.703125 L 886.492188 133.527344 L 885.359375 133.527344 L 885.359375 132.570313 L 886.492188 132.570313 L 886.492188 130.773438 L 888.03125 130.035156 L 888.03125 132.570313 L 889.585938 132.570313 L 889.585938 133.527344 L 888.03125 133.527344 L 888.03125 137.773438 C 888.03125 138.125 888.058594 138.347656 888.113281 138.449219 C 888.167969 138.550781 888.257813 138.628906 888.378906 138.6875 C 888.503906 138.75 888.679688 138.777344 888.90625 138.777344 C 889.078125 138.777344 889.304688 138.761719 889.585938 138.730469 "/>
</g>
<path style=" stroke:none;fill-rule:evenodd;fill:rgb(13.299561%,12.199402%,12.199402%);fill-opacity:1;" d="M 397.761719 157.769531 C 397.421875 157.769531 397.320313 157.453125 397.320313 157.109375 C 397.320313 156.769531 397.765625 156.53125 398.105469 156.53125 C 398.445313 156.53125 398.457031 157.039063 398.457031 157.378906 C 398.457031 157.71875 398.105469 157.769531 397.761719 157.769531 M 398.664063 154.902344 C 395.308594 155.535156 396.503906 159.21875 396.503906 159.21875 C 395.03125 160.421875 391.949219 161.621094 391.949219 161.621094 C 391.320313 162.222656 392.304688 161.875 393.027344 161.722656 C 393.75 161.570313 396.03125 160.789063 397.371094 159.796875 C 398.710938 158.804688 399.484375 157.015625 399.484375 157.015625 C 400.253906 155.578125 398.664063 154.902344 398.664063 154.902344 "/>
<path style=" stroke:none;fill-rule:evenodd;fill:rgb(13.299561%,12.199402%,12.199402%);fill-opacity:1;" d="M 391.753906 168.054688 C 391.753906 168.054688 391.359375 165.082031 393.289063 164.644531 C 393.289063 164.644531 399.886719 165.894531 399.914063 171.035156 C 399.914063 171.035156 399.753906 172.832031 398.8125 174.292969 C 398.8125 174.292969 393.222656 175.980469 389.496094 174.867188 C 389.496094 174.867188 388.054688 172.675781 390.027344 171.414063 C 390.027344 171.414063 390.765625 173.234375 394.777344 172.613281 C 394.777344 172.613281 396.960938 172.40625 397.894531 172.085938 C 397.894531 172.085938 396.191406 167.953125 393.867188 167.863281 C 393.867188 167.863281 392.503906 167.527344 391.753906 168.054688 "/>
<path style=" stroke:none;fill-rule:evenodd;fill:rgb(13.299561%,12.199402%,12.199402%);fill-opacity:1;" d="M 332.816406 168.054688 C 332.816406 168.054688 332.421875 165.082031 334.355469 164.644531 C 334.355469 164.644531 340.949219 165.894531 340.980469 171.035156 C 340.980469 171.035156 340.816406 172.832031 339.875 174.292969 C 339.875 174.292969 334.289063 175.980469 330.5625 174.867188 C 330.5625 174.867188 329.117188 172.675781 331.089844 171.414063 C 331.089844 171.414063 331.828125 173.234375 335.84375 172.613281 C 335.84375 172.613281 338.023438 172.40625 338.960938 172.085938 C 338.960938 172.085938 337.257813 167.953125 334.929688 167.863281 C 334.929688 167.863281 333.570313 167.527344 332.816406 168.054688 "/>
<path style=" stroke:none;fill-rule:evenodd;fill:rgb(13.299561%,12.199402%,12.199402%);fill-opacity:1;" d="M 366.363281 165.078125 L 366.648438 164.308594 C 366.648438 164.308594 366.800781 163.628906 367.566406 164.070313 L 369.050781 165.078125 C 369.050781 165.078125 369.773438 165.683594 368.878906 166.015625 C 368.878906 166.015625 367.40625 165.871094 366.90625 166.015625 C 366.90625 166.015625 365.6875 166.183594 366.363281 165.078125 M 364.972656 164.644531 C 364.972656 164.644531 363.964844 166.324219 362.859375 165.027344 C 362.859375 165.027344 361.054688 163.683594 361.949219 162.484375 C 361.949219 162.484375 362.355469 161.3125 363.675781 161.859375 C 363.675781 161.859375 365.8125 162.335938 365.59375 163.480469 Z M 392.714844 152.742188 C 392.511719 152.222656 391.574219 151.371094 389.738281 152.214844 C 389.738281 152.214844 387.359375 153.289063 383.664063 155.832031 C 383.664063 155.832031 381.070313 157.015625 380.332031 159.027344 C 380.332031 159.027344 380.308594 160.4375 379.515625 161.667969 C 379.515625 161.667969 379.421875 161.757813 379.632813 161.964844 C 379.632813 161.964844 384.984375 167.199219 385.15625 170.648438 C 385.15625 170.648438 385.1875 171.332031 384.699219 171.699219 L 372.617188 173.039063 C 372.617188 173.039063 367.585938 173.765625 366.648438 169.734375 L 366.699219 169.015625 C 366.699219 169.015625 368.085938 169.71875 369.875 168.804688 C 369.875 168.804688 374.160156 166.621094 370.636719 162.773438 C 370.359375 162.472656 369.21875 161.261719 368.429688 161.042969 C 368.429688 161.042969 365.835938 159.640625 364.203125 156.726563 C 364.203125 156.726563 363.59375 155.941406 363.417969 156.839844 C 363.417969 156.839844 363.070313 157.652344 363.242188 158.550781 C 363.242188 158.550781 358.574219 161.394531 361.234375 167.191406 L 361.277344 167.285156 C 361.277344 167.285156 360.578125 168.464844 355.613281 168.582031 C 355.613281 168.582031 355.023438 170.121094 354.652344 170.695313 C 354.28125 171.265625 354.699219 170.886719 354.699219 170.886719 C 354.699219 170.886719 357.488281 170.433594 360.222656 173.09375 C 360.222656 173.09375 357.292969 177.652344 347.886719 176.644531 C 347.886719 176.644531 340.15625 173.238281 345.195313 166.132813 C 345.195313 166.132813 342.585938 167.160156 342.335938 171.265625 C 342.335938 171.265625 342.167969 174.984375 343.757813 176.980469 C 343.757813 176.980469 345.773438 180.4375 352.253906 179.09375 C 352.253906 179.09375 355.949219 178.277344 357.292969 177.652344 C 357.292969 177.652344 360.84375 176.421875 361.515625 174.050781 C 361.515625 174.050781 362.457031 172.222656 361.277344 169.878906 C 360.859375 169.046875 361.324219 169.78125 361.324219 169.78125 C 361.324219 169.78125 362.359375 168.988281 363.003906 168.4375 C 363.003906 168.4375 364.824219 167.820313 365.886719 170.117188 C 365.886719 170.117188 365.015625 172.949219 366.941406 174.195313 C 368.863281 175.445313 371.449219 175.496094 372.746094 175.203125 L 385.179688 174.195313 C 385.179688 174.195313 388.988281 172.53125 385.757813 165.699219 C 385.699219 165.578125 383.0625 160.636719 381.769531 159.414063 L 390.359375 154.757813 C 390.359375 154.757813 391.992188 153.898438 391.574219 156.464844 C 391.574219 156.464844 391.351563 157.691406 390.890625 158.742188 L 391.035156 158.691406 C 391.035156 158.691406 394.035156 156.03125 392.714844 152.742188 "/>
<path style=" stroke:none;fill-rule:evenodd;fill:rgb(13.299561%,12.199402%,12.199402%);fill-opacity:1;" d="M 312.992188 172.339844 C 312.679688 172.339844 312.421875 172.082031 312.421875 171.769531 C 312.421875 171.453125 312.679688 171.199219 312.992188 171.199219 C 313.308594 171.199219 313.5625 171.453125 313.5625 171.769531 C 313.5625 172.082031 313.308594 172.339844 312.992188 172.339844 M 327.246094 160.566406 C 327.246094 160.566406 328.046875 160.457031 328.15625 159.988281 L 327.148438 152.839844 C 327.148438 152.839844 323.816406 153.960938 325.390625 169.972656 C 325.421875 170.296875 325.804688 170.742188 323.742188 171.21875 C 323.742188 171.21875 318.972656 172.3125 316.445313 172.230469 C 316.445313 172.230469 315.875 168.390625 313.265625 168.195313 C 313.265625 168.195313 310.195313 168.398438 309.871094 172.996094 C 309.871094 172.996094 310.089844 175.117188 314.191406 174.726563 C 314.191406 174.726563 314.570313 178.859375 303.773438 178.277344 L 307.378906 180.050781 C 307.378906 180.050781 311.625 181.855469 314.382813 177.941406 C 314.382813 177.941406 315.386719 176.785156 315.917969 174.675781 C 315.917969 174.675781 321.519531 174.90625 325.085938 173.429688 C 325.085938 173.429688 327.617188 172.183594 327.234375 165.855469 C 327.234375 165.855469 327.101563 161.875 326.863281 161.140625 C 326.863281 161.140625 326.765625 160.300781 327.246094 160.566406 "/>
<path style=" stroke:none;fill-rule:evenodd;fill:rgb(13.299561%,12.199402%,12.199402%);fill-opacity:1;" d="M 304.0625 162.964844 L 302.238281 165.078125 L 302.863281 172.371094 C 302.863281 172.371094 301.910156 175.832031 293.890625 176.933594 C 293.890625 176.933594 284.296875 177.59375 286.210938 166.230469 C 286.210938 166.230469 283.644531 170.882813 285.347656 175.15625 C 285.617188 175.835938 287.519531 180.4375 296.289063 179.042969 C 296.289063 179.042969 303.175781 177.785156 304.351563 172.179688 C 304.421875 171.851563 304.644531 169.296875 304.351563 168.4375 L 305.40625 168.34375 C 305.40625 168.34375 306.4375 167.542969 304.972656 164.550781 "/>
<path style=" stroke:none;fill-rule:evenodd;fill:rgb(13.299561%,12.199402%,12.199402%);fill-opacity:1;" d="M 288.703125 160.757813 C 288.703125 160.757813 291.472656 159.640625 291.757813 154.652344 C 291.78125 154.285156 291.050781 152.046875 288.460938 153.175781 L 276.753906 159.460938 C 276.753906 159.460938 274.121094 160.710938 273.683594 165.316406 L 280.257813 171.796875 C 280.257813 171.796875 275.796875 173.730469 273.347656 171.652344 L 270.273438 152.355469 L 268.59375 154.757813 C 268.59375 154.757813 268.964844 155.757813 269.21875 157.445313 C 269.472656 159.132813 271.234375 172.039063 271.234375 172.039063 C 271.234375 172.039063 271.5625 172.332031 271.8125 173.527344 C 271.8125 173.527344 272.054688 175.0625 275.507813 175.121094 C 275.507813 175.121094 280.097656 175.019531 281.410156 174.390625 C 281.410156 174.390625 285.253906 172.683594 280.976563 168.195313 L 280.835938 168.003906 C 280.835938 168.003906 278.925781 167.238281 277.523438 165.644531 C 277.390625 165.496094 275.230469 163.164063 275.3125 162.726563 C 275.3125 162.726563 285.488281 157.335938 288.417969 156.292969 C 288.417969 156.292969 289.890625 155.804688 289.835938 157.296875 C 289.835938 157.296875 289.851563 158.574219 288.703125 160.757813 "/>
<path style=" stroke:none;fill-rule:evenodd;fill:rgb(13.299561%,12.199402%,12.199402%);fill-opacity:1;" d="M 265.714844 168.339844 L 266.625 166.324219 C 266.625 166.324219 268.714844 168.328125 269.054688 172.175781 C 269.054688 172.175781 269.601563 175.15625 265.355469 174.640625 C 264.765625 174.570313 263.464844 174.078125 262.019531 172.324219 C 261.9375 172.226563 258.652344 176.894531 256.148438 174.476563 C 256.039063 174.371094 255.496094 171.792969 254.488281 172.753906 C 253.480469 173.71875 253.574219 175.144531 254.078125 175.683594 C 254.078125 175.683594 255.054688 179.191406 252.503906 179.191406 C 252.503906 179.191406 248.21875 179.546875 250.160156 173.332031 C 250.160156 173.332031 249.964844 172.574219 248.675781 173.046875 C 248.675781 173.046875 231.234375 178.941406 226.40625 173.8125 C 226.40625 173.8125 226.019531 173.378906 225.828125 173.238281 C 225.636719 173.09375 224.417969 171.414063 224.550781 169.113281 C 224.550781 169.113281 223.914063 160.523438 222.035156 156.4375 L 223.621094 153.320313 C 223.621094 153.320313 225.539063 161.859375 225.445313 165.847656 C 225.445313 165.847656 225.316406 166.8125 225.382813 167.480469 C 225.445313 168.152344 225.679688 172.867188 233.367188 172.753906 C 233.367188 172.753906 245.300781 172.648438 252.277344 169.828125 C 252.277344 169.828125 251.328125 172.390625 251.027344 174.386719 C 251.027344 174.386719 250.777344 175.367188 251.746094 175.347656 C 251.746094 175.347656 252.03125 175.78125 252.277344 174.484375 C 252.519531 173.191406 252.324219 174.292969 252.324219 174.292969 C 252.324219 174.292969 253.082031 169.277344 256.164063 168.582031 C 256.164063 168.582031 255.710938 171.660156 257.746094 172.039063 C 257.746094 172.039063 261.246094 172.75 262.355469 168.4375 C 262.355469 168.4375 263.726563 171.492188 265.6875 171.628906 C 265.6875 171.628906 266.609375 171.90625 267.109375 171.027344 "/>
<path style=" stroke:none;fill-rule:evenodd;fill:rgb(13.299561%,12.199402%,12.199402%);fill-opacity:1;" d="M 250.113281 156.148438 C 250.113281 156.148438 235.578125 160.589844 233.996094 161.050781 C 233.945313 161.0625 233.910156 161.074219 233.886719 161.082031 C 233.125 161.285156 230.316406 161.671875 231.15625 163.589844 C 231.15625 163.589844 236.472656 161.394531 242.546875 159.769531 L 249.492188 157.683594 C 249.492188 157.683594 250.734375 157.035156 250.113281 156.148438 "/>
<path style=" stroke:none;fill-rule:evenodd;fill:rgb(13.299561%,12.199402%,12.199402%);fill-opacity:1;" d="M 214.3125 160.851563 L 212.921875 152.839844 L 210.804688 156.054688 C 210.804688 156.054688 211 156.523438 211.191406 158.214844 C 211.191406 158.214844 211.933594 164.550781 211.863281 174.582031 C 211.863281 174.582031 215.191406 174.257813 213.039063 161.210938 C 213.039063 161.210938 212.808594 160.945313 213.0625 160.949219 C 213.0625 160.949219 213.925781 161.074219 214.3125 160.851563 "/>
<path style=" stroke:none;fill-rule:evenodd;fill:rgb(13.299561%,12.199402%,12.199402%);fill-opacity:1;" d="M 219.730469 168.871094 L 218.871094 171.269531 C 218.871094 171.269531 220.363281 171.96875 220.3125 173.957031 C 220.3125 173.957031 218.261719 180.128906 208.214844 176.597656 C 208.214844 176.597656 210.433594 180.476563 214.980469 180.820313 C 214.980469 180.820313 223.941406 178.667969 220.644531 170.40625 C 220.589844 170.265625 220.164063 169.046875 219.730469 168.871094 "/>
<path style=" stroke:none;fill-rule:evenodd;fill:rgb(13.299561%,12.199402%,12.199402%);fill-opacity:1;" d="M 246.230469 182.546875 C 246.230469 182.546875 245.496094 182.148438 246.519531 181.445313 C 246.519531 181.445313 246.855469 180.945313 247.269531 181.15625 C 247.269531 181.15625 247.796875 181.042969 247.6875 181.660156 C 247.578125 182.277344 246.375 182.695313 246.230469 182.546875 M 245.269531 181.445313 C 245.269531 181.445313 244.21875 183.320313 243.441406 182.355469 C 243.441406 182.355469 243.050781 181.742188 243.875 180.628906 C 244.542969 179.726563 244.195313 180.246094 244.039063 180.480469 C 244.15625 180.320313 244.425781 180.027344 244.785156 180.101563 C 244.785156 180.101563 245.605469 180.457031 245.269531 181.445313 M 248.578125 179.765625 C 248.277344 179.742188 247.476563 180.195313 247.476563 180.195313 C 247.476563 180.195313 247.078125 179.167969 245.386719 178.804688 C 243.695313 178.441406 242.628906 182.023438 242.628906 182.023438 C 242.050781 182.265625 241.71875 181.121094 241.71875 181.121094 C 241.691406 179.546875 242.773438 178.660156 242.773438 178.660156 C 244.304688 177.601563 245.941406 175.15625 245.941406 175.15625 C 244.269531 175.902344 241.765625 178.851563 241.765625 178.851563 C 241.765625 178.851563 242.289063 178.25 241.765625 178.949219 C 241.238281 179.644531 240.09375 180.898438 240.902344 182.886719 C 241.707031 184.875 244.429688 183.460938 244.429688 183.460938 C 245.925781 183.683594 247.667969 183.171875 247.667969 183.171875 C 250.328125 182.300781 248.578125 179.765625 248.578125 179.765625 "/>
<path style=" stroke:none;fill-rule:nonzero;fill:rgb(0%,44.299316%,72.898865%);fill-opacity:1;" d="M 744.820313 101.578125 C 743.820313 102.582031 736.820313 101.578125 736.820313 101.578125 L 736.820313 91.578125 C 741.820313 86.828125 744.820313 88.578125 744.820313 88.578125 Z M 651.472656 144.164063 L 651.363281 144.207031 C 643.445313 147.039063 636.613281 142.082031 635.695313 140.996094 L 635.402344 140.496094 C 635.402344 140.496094 637.777344 138.207031 640.195313 137.582031 L 661.820313 131.570313 C 661.820313 131.570313 659.300781 141.28125 651.472656 144.164063 M 609.820313 101.578125 L 602.820313 100.953125 L 602.820313 89.578125 C 602.820313 89.578125 606.820313 85.453125 609.820313 86.578125 Z M 841.820313 82.746094 L 841.820313 102.414063 L 829.820313 102.332031 L 829.820313 70.578125 C 829.820313 70.578125 808.820313 71.914063 795.820313 98.332031 L 795.820313 71.578125 C 795.820313 71.578125 778.734375 74.082031 771.984375 96.164063 C 771.765625 96.878906 768.777344 101.496094 765.445313 101.582031 C 762.109375 101.664063 755.820313 101.664063 755.820313 101.664063 L 755.820313 70.578125 C 755.820313 70.578125 728.984375 69.746094 720.152344 85.164063 L 720.234375 101.578125 L 705.820313 101.578125 L 705.695313 29.832031 C 705.695313 29.832031 693.820313 37.082031 687.820313 43.832031 L 687.820313 107.582031 C 687.820313 107.582031 683.820313 116.582031 682.820313 117.414063 L 682.820313 68.578125 C 682.820313 68.578125 671.820313 71.164063 663.820313 80.082031 L 663.820313 100.578125 L 651.820313 100.578125 L 651.820313 69.578125 C 651.820313 69.578125 641.820313 71.082031 635.820313 79.746094 L 635.820313 100.578125 L 619.484375 100.996094 L 619.566406 70.664063 C 619.566406 70.664063 602.648438 67.613281 588.609375 83.515625 C 588.609375 83.515625 600.820313 103.832031 584.820313 117.246094 L 584.820313 124.582031 L 620.820313 124.582031 C 620.820313 124.582031 628.820313 126.078125 634.984375 116.914063 L 635.710938 124.671875 L 663.820313 122.832031 L 663.820313 126.582031 C 663.820313 126.582031 634.988281 127.914063 633.320313 137.746094 C 631.652344 147.582031 644.238281 152.582031 657.570313 149.746094 C 670.902344 146.914063 680.820313 134.582031 680.820313 128.582031 L 680.820313 122.582031 L 687.820313 114.082031 L 687.820313 123.582031 C 687.820313 123.582031 687.984375 125.582031 694.152344 125.582031 L 704.820313 125.582031 C 704.820313 125.582031 713.152344 124.082031 718.152344 117.007813 L 719.652344 116.082031 C 719.652344 116.082031 718.152344 124.082031 722.820313 124.414063 C 727.484375 124.746094 759.652344 124.246094 759.652344 124.246094 C 759.652344 124.246094 768.652344 124.246094 771.484375 107.246094 C 774.320313 90.246094 778.820313 89.414063 778.820313 89.414063 L 778.820313 124.582031 L 796.484375 123.914063 C 796.484375 123.914063 791.820313 106.746094 812.820313 92.746094 L 812.820313 124.582031 L 829.820313 124.582031 C 829.820313 124.582031 836.820313 123.414063 841.820313 114.082031 L 841.820313 124.582031 L 857.820313 124.414063 L 857.820313 69.578125 C 857.820313 69.578125 844.820313 77.410156 841.820313 82.746094 "/>
<path style=" stroke:none;fill-rule:nonzero;fill:rgb(54.098511%,76.899719%,26.699829%);fill-opacity:1;" d="M 98.824219 2.125 C 44.941406 2.886719 1.5 46.800781 1.5 100.863281 C 1.5 114.5 4.257813 127.488281 9.253906 139.300781 L 98.816406 100.164063 "/>
<path style=" stroke:none;fill-rule:nonzero;fill:rgb(53.69873%,76.899719%,25.498962%);fill-opacity:1;" d="M 100.335938 0.00390625 C 44.785156 0.789063 0 46.0625 0 101.796875 C 0 115.851563 2.847656 129.246094 8 141.425781 L 100.339844 101.078125 "/>
<path style=" stroke:none;fill-rule:nonzero;fill:rgb(100%,100%,100%);fill-opacity:1;" d="M 30.988281 92.671875 C 45.851563 80.078125 63.589844 81.402344 63.589844 81.402344 C 63.589844 81.402344 72.320313 70.074219 93.953125 73.183594 L 95.28125 80.007813 C 91.789063 79.4375 88.449219 79.148438 85.335938 79.148438 C 72.65625 79.148438 66.984375 83.851563 65.671875 85.136719 C 47.242188 85.464844 33.039063 95.023438 29.628906 97.527344 L 11.527344 71.511719 L 14.15625 68.675781 Z M 41.472656 59.226563 C 41.472656 59.226563 47.496094 52.449219 67.050781 55.296875 L 91.21875 70.914063 C 91.21875 70.914063 71.71875 69.441406 62.320313 79.429688 C 46.414063 78.429688 34.46875 87.324219 31.316406 89.933594 L 15.722656 66.921875 C 26.597656 54.839844 41.472656 59.226563 41.472656 59.226563 M 95.414063 71.5 L 67.5 53.515625 C 66.664063 53.398438 47.285156 50.777344 40.875 57.160156 C 37.921875 56.460938 22.492188 52.882813 9.191406 71.351563 L 29.234375 100.160156 C 29.234375 100.160156 45.9375 87.660156 66.488281 86.949219 C 75.703125 78.550781 97.34375 82.230469 97.34375 82.230469 "/>
<g clip-path="url(#clip2)" clip-rule="nonzero">
<path style=" stroke:none;fill-rule:nonzero;fill:rgb(53.69873%,76.899719%,25.498962%);fill-opacity:1;" d="M 8.335938 142.6875 C 24.394531 177.796875 59.832031 202.199219 100.964844 202.199219 C 142.09375 202.199219 177.53125 177.796875 193.589844 142.6875 L 100.960938 101.992188 "/>
</g>
<path style=" stroke:none;fill-rule:nonzero;fill:rgb(100%,100%,100%);fill-opacity:1;" d="M 11.113281 142.96875 C 26.691406 177.027344 61.0625 200.695313 100.964844 200.695313 C 140.859375 200.695313 175.234375 177.027344 190.8125 142.972656 L 100.960938 103.496094 "/>
<path style=" stroke:none;fill-rule:nonzero;fill:rgb(53.69873%,77.2995%,25.099182%);fill-opacity:1;" d="M 99 116.015625 C 95.09375 116.015625 91.332031 116.617188 87.792969 117.734375 C 89.796875 117.371094 91.867188 117.171875 93.984375 117.171875 C 112.304688 117.171875 127.160156 131.433594 127.160156 149.027344 C 127.160156 166.617188 112.304688 180.878906 93.984375 180.878906 C 78.921875 180.878906 66.210938 171.238281 62.164063 158.035156 C 64.566406 176.222656 80.136719 190.261719 99 190.261719 C 119.527344 190.261719 136.171875 173.640625 136.171875 153.136719 C 136.171875 132.636719 119.527344 116.015625 99 116.015625 "/>
<path style=" stroke:none;fill-rule:nonzero;fill:rgb(53.69873%,76.899719%,25.498962%);fill-opacity:1;" d="M 101.550781 -0.00390625 L 101.539063 101.078125 L 193.886719 141.417969 C 199.039063 129.238281 201.886719 115.851563 201.886719 101.796875 C 201.886719 46.058594 157.097656 0.796875 101.550781 -0.00390625 "/>
<path style=" stroke:none;fill-rule:nonzero;fill:rgb(100%,100%,100%);fill-opacity:1;" d="M 103.054688 2.117188 L 103.058594 100.164063 L 192.628906 139.296875 C 197.625 127.480469 200.382813 114.496094 200.382813 100.859375 C 200.382813 46.796875 156.9375 2.878906 103.054688 2.117188 "/>
<path style=" stroke:none;fill-rule:nonzero;fill:rgb(54.098511%,76.899719%,26.699829%);fill-opacity:1;" d="M 143.222656 70.640625 C 140.582031 70.640625 135.882813 68.605469 129.195313 64.558594 L 129.761719 63.832031 C 141.019531 70.648438 143.710938 69.914063 144.265625 69.523438 C 144.960938 69.042969 144.542969 67.757813 144.234375 67.03125 C 142.503906 62.996094 132.839844 58.910156 132.742188 58.867188 L 129.96875 57.710938 L 133.011719 58.035156 C 134.808594 58.226563 135.011719 57.886719 135.019531 57.871094 C 135.160156 57.609375 134.539063 56.800781 133.902344 56.25 C 123.539063 51.460938 122.023438 46.460938 121.964844 46.246094 C 121.71875 45.132813 121.066406 44.320313 119.960938 43.753906 C 115.101563 41.242188 103.171875 44.671875 103.058594 44.703125 L 102.746094 43.871094 C 103.230469 43.726563 115.21875 40.28125 120.464844 42.992188 C 121.808594 43.6875 122.640625 44.71875 122.933594 46.058594 C 122.945313 46.082031 124.449219 50.90625 134.421875 55.496094 L 134.535156 55.570313 C 134.859375 55.839844 136.449219 57.246094 135.917969 58.242188 C 135.734375 58.585938 135.378906 58.78125 134.945313 58.882813 C 137.933594 60.3125 143.757813 63.445313 145.164063 66.71875 C 146.0625 68.820313 145.503906 69.78125 144.882813 70.214844 C 144.476563 70.5 143.917969 70.640625 143.222656 70.640625 "/>
<path style=" stroke:none;fill-rule:nonzero;fill:rgb(54.098511%,76.899719%,26.699829%);fill-opacity:1;" d="M 133.167969 73.300781 C 126.472656 73.300781 120.882813 68.203125 120.804688 68.132813 L 121.523438 67.523438 C 121.941406 67.914063 131.875 76.953125 140.789063 69.550781 L 141.464844 70.191406 C 138.710938 72.480469 135.851563 73.300781 133.167969 73.300781 "/>
<path style=" stroke:none;fill-rule:nonzero;fill:rgb(54.098511%,76.899719%,26.699829%);fill-opacity:1;" d="M 123.253906 73.960938 C 121.253906 73.960938 118.597656 73.421875 115.175781 71.746094 C 113.855469 71.90625 105.015625 71.574219 102.207031 67.847656 L 103.035156 67.359375 C 105.683594 70.875 115.105469 70.867188 115.191406 70.855469 L 115.359375 70.832031 L 115.515625 70.90625 C 124.277344 75.253906 127.445313 71.785156 127.582031 71.636719 L 128.371094 72.164063 C 128.277344 72.277344 126.78125 73.960938 123.253906 73.960938 "/>
<path style=" stroke:none;fill-rule:nonzero;fill:rgb(54.098511%,76.899719%,26.699829%);fill-opacity:1;" d="M 200.382813 118.757813 C 198.339844 117.09375 194.5625 114.546875 187.824219 111.371094 C 179.628906 107.507813 177.417969 104.859375 177.003906 103.316406 C 176.769531 102.433594 177.128906 101.949219 177.167969 101.898438 C 177.222656 101.839844 180.324219 98.371094 179.054688 91.210938 C 178.082031 85.707031 170.261719 75.019531 163.894531 72.039063 C 162.21875 71.253906 160.824219 71.089844 159.738281 71.546875 C 158.835938 71.921875 158.347656 72.445313 158.246094 73.140625 C 157.84375 75.847656 162.871094 80.53125 164.964844 82.105469 L 164.820313 82.238281 L 164.820313 86.726563 L 164.34375 86.199219 C 164.261719 86.144531 156.082031 80.621094 151.738281 79.34375 L 151.671875 79.273438 L 140.003906 71.175781 L 137.226563 72.535156 C 138.371094 73.953125 142.746094 78.992188 150.265625 83.394531 L 149.71875 84.128906 C 140.730469 78.863281 136.152344 72.683594 136.105469 72.621094 L 135.816406 72.226563 L 140.136719 70.128906 L 151.976563 78.535156 C 155.714844 79.667969 161.820313 83.558594 163.820313 84.980469 L 163.820313 82.644531 C 163.820313 81.71875 156.421875 76.488281 156.9375 73.027344 C 157.085938 72.023438 157.9375 71.257813 159.148438 70.75 C 160.53125 70.171875 162.316406 70.34375 164.277344 71.261719 C 170.988281 74.40625 178.964844 85.839844 179.992188 91.652344 C 181.332031 99.210938 178.105469 103.578125 177.945313 103.578125 L 177.953125 103.578125 C 177.960938 103.578125 177.828125 103.261719 177.996094 103.78125 C 178.351563 104.898438 180.167969 107.054688 188.289063 110.882813 C 194.652344 113.882813 198.425781 116.253906 200.621094 117.945313 "/>
<path style=" stroke:none;fill-rule:nonzero;fill:rgb(54.098511%,76.899719%,26.699829%);fill-opacity:1;" d="M 191.847656 140.375 L 163.886719 113.613281 C 162.777344 113.4375 156.648438 112.40625 153.1875 110.828125 C 152.585938 110.554688 152.304688 110.347656 152.324219 109.898438 C 152.324219 109.835938 152.328125 109.816406 152.273438 109.730469 L 153.136719 109.292969 C 153.308594 109.558594 153.324219 109.757813 153.316406 109.882813 C 153.371094 109.914063 153.464844 109.96875 153.640625 110.046875 C 157.242188 111.6875 164.152344 112.765625 164.222656 112.777344 L 164.390625 112.800781 L 164.5 112.910156 L 193.964844 140.929688 "/>
<path style=" stroke:none;fill-rule:nonzero;fill:rgb(54.098511%,76.899719%,26.699829%);fill-opacity:1;" d="M 145.769531 88.21875 C 145.664063 88.132813 135.203125 79.675781 132.394531 77.714844 C 129.328125 75.574219 129.960938 72.972656 129.984375 72.863281 L 130.953125 73.058594 L 130.46875 72.960938 L 130.953125 73.054688 C 130.933594 73.144531 130.453125 75.242188 133.007813 77.027344 C 135.84375 79.007813 146.003906 87.222656 146.4375 87.570313 "/>
<path style=" stroke:none;fill-rule:nonzero;fill:rgb(54.098511%,76.899719%,26.699829%);fill-opacity:1;" d="M 132.78125 83.457031 C 130.210938 81.792969 128.980469 80.226563 129.121094 78.796875 C 129.265625 77.296875 130.855469 76.582031 130.925781 76.554688 L 131.367188 77.34375 C 131.355469 77.347656 130.199219 77.875 130.105469 78.878906 C 130.007813 79.964844 131.132813 81.300781 133.367188 82.746094 "/>
<path style=" stroke:none;fill-rule:nonzero;fill:rgb(54.098511%,76.899719%,26.699829%);fill-opacity:1;" d="M 137.65625 93.859375 C 132.59375 89.632813 130.179688 86.628906 130.476563 84.921875 C 130.542969 84.539063 130.75 84.269531 130.953125 84.121094 C 131.460938 83.273438 132.1875 82.8125 133.117188 82.753906 C 137.476563 82.46875 144.734375 91.691406 145.550781 92.742188 L 144.726563 93.238281 C 142.601563 90.496094 136.425781 83.421875 133.191406 83.628906 C 132.589844 83.667969 132.132813 83.988281 131.785156 84.613281 L 131.710938 84.75 L 131.558594 84.8125 C 131.5625 84.8125 131.46875 84.859375 131.445313 85.132813 C 131.394531 85.789063 131.964844 87.898438 138.339844 93.222656 "/>
<path style=" stroke:none;fill-rule:nonzero;fill:rgb(54.098511%,76.899719%,26.699829%);fill-opacity:1;" d="M 153.792969 123.015625 L 152.804688 122.960938 C 152.820313 122.742188 154.25 102.007813 146.285156 99.511719 C 138.046875 96.929688 134.878906 97.578125 134.84375 97.578125 L 134.671875 97.578125 L 127.523438 91.03125 C 126.617188 89.296875 123.773438 84.859375 121.582031 84.859375 C 121.558594 84.859375 121.566406 84.8125 121.539063 84.8125 C 120.445313 84.8125 119.710938 85.542969 119.273438 86.664063 L 118.261719 86.265625 C 119.035156 84.261719 120.179688 83.527344 121.503906 83.46875 C 124.695313 83.324219 127.832031 89.3125 128.378906 90.339844 L 135.046875 95.230469 C 135.832031 95.277344 139.21875 95.625 146.617188 97.945313 C 155.28125 100.660156 153.859375 122.105469 153.792969 123.015625 "/>
<path style=" stroke:none;fill-rule:nonzero;fill:rgb(54.098511%,76.899719%,26.699829%);fill-opacity:1;" d="M 130.597656 112.75 C 129.417969 111.703125 101.796875 86.964844 106.542969 73.382813 L 106.605469 73.207031 L 106.789063 73.121094 C 106.835938 73.101563 107.914063 72.617188 109.121094 73.136719 C 110.378906 73.679688 111.257813 75.078125 111.726563 77.289063 C 111.738281 77.320313 114.917969 85.800781 119.015625 87.496094 C 122.984375 89.140625 122.414063 93.597656 122.148438 94.921875 C 123.546875 95.472656 128.128906 97.625 128.46875 102.300781 L 127.480469 102.359375 C 127.117188 97.445313 121.476563 95.621094 121.417969 95.601563 L 120.992188 95.46875 L 121.101563 95.082031 C 121.113281 95.027344 122.511719 89.914063 118.597656 88.292969 C 114.109375 86.433594 110.902344 77.871094 110.765625 77.507813 C 110.246094 75.066406 109.359375 74.222656 108.703125 73.933594 C 108.171875 73.699219 107.679688 73.773438 107.425781 73.839844 C 103.203125 86.976563 131.65625 112.53125 131.9375 112.78125 "/>
<path style=" stroke:none;fill-rule:nonzero;fill:rgb(54.098511%,76.899719%,26.699829%);fill-opacity:1;" d="M 119.273438 86.640625 L 118.394531 86.066406 L 118.722656 86.398438 L 118.261719 86.25 C 118.28125 86.136719 118.390625 84.933594 115.230469 77.527344 C 113.535156 73.542969 111.957031 72.546875 110.929688 72.414063 C 109.761719 72.269531 108.914063 73.214844 108.902344 73.226563 L 108.113281 72.695313 C 108.160156 72.636719 109.3125 71.316406 111.074219 71.546875 C 112.949219 71.785156 114.664063 73.695313 116.164063 77.214844 C 119.925781 86.046875 119.511719 86.453125 119.273438 86.640625 "/>
<path style=" stroke:none;fill-rule:nonzero;fill:rgb(54.098511%,76.899719%,26.699829%);fill-opacity:1;" d="M 122.078125 84.242188 L 121.085938 84.238281 C 121.128906 78.148438 116.371094 77.820313 116.171875 77.8125 L 116.230469 76.933594 C 116.289063 76.9375 122.125 77.332031 122.078125 84.242188 "/>
<path style=" stroke:none;fill-rule:nonzero;fill:rgb(54.098511%,76.899719%,26.699829%);fill-opacity:1;" d="M 116.015625 77.289063 L 115.386719 76.609375 L 120.105469 73.171875 L 120.734375 73.851563 Z M 116.015625 77.289063 "/>
<path style=" stroke:none;fill-rule:nonzero;fill:rgb(54.098511%,76.899719%,26.699829%);fill-opacity:1;" d="M 114.972656 75.121094 L 114.441406 74.378906 L 117.792969 72.503906 L 118.324219 73.246094 Z M 114.972656 75.121094 "/>
<path style=" stroke:none;fill-rule:nonzero;fill:rgb(54.098511%,76.899719%,26.699829%);fill-opacity:1;" d="M 113.933594 73.6875 L 113.335938 72.984375 L 115.398438 71.609375 L 115.996094 72.3125 Z M 113.933594 73.6875 "/>
<path style=" stroke:none;fill-rule:nonzero;fill:rgb(53.69873%,77.2995%,25.099182%);fill-opacity:1;" d="M 145.527344 55.929688 L 144.820313 54.9375 L 144.820313 54.894531 C 144.820313 54.734375 144.851563 50.886719 146.597656 49.253906 C 147.070313 48.808594 147.847656 48.5625 148.523438 48.519531 C 148.878906 47.992188 149.945313 46.753906 151.367188 46.394531 C 152.175781 46.1875 153.046875 46.296875 153.84375 46.71875 L 153.902344 46.738281 L 154.414063 47.121094 L 153.765625 47.789063 L 153.335938 47.460938 C 152.792969 47.183594 152.269531 47.113281 151.742188 47.246094 C 150.386719 47.589844 149.46875 49.140625 149.460938 49.15625 L 149.316406 49.40625 L 149 49.394531 C 148.484375 49.386719 148.066406 49.535156 147.71875 49.863281 C 146.542969 50.964844 146.511719 53.746094 146.605469 54.78125 L 146.6875 55.691406 "/>
<path style=" stroke:none;fill-rule:nonzero;fill:rgb(53.69873%,77.2995%,25.099182%);fill-opacity:1;" d="M 153.023438 50.90625 L 152.054688 50.691406 C 152.109375 50.496094 153.429688 45.929688 156.367188 44.960938 C 157.480469 44.597656 158.652344 44.78125 159.859375 45.515625 L 160.402344 45.675781 L 160.09375 46.519531 L 159.40625 46.320313 L 159.34375 46.28125 C 158.394531 45.683594 157.53125 45.523438 156.714844 45.792969 C 154.6875 46.460938 153.363281 49.710938 153.023438 50.90625 "/>
<path style=" stroke:none;fill-rule:nonzero;fill:rgb(53.69873%,77.2995%,25.099182%);fill-opacity:1;" d="M 157.328125 50.855469 L 156.414063 50.496094 L 156.773438 49.792969 C 156.886719 49.546875 158.878906 45.425781 162.15625 44.636719 C 163.5 44.308594 164.851563 44.585938 166.175781 45.449219 L 166.667969 45.640625 L 166.265625 46.449219 L 165.664063 46.21875 L 165.621094 46.1875 C 164.527344 45.460938 163.480469 45.234375 162.421875 45.488281 C 159.582031 46.175781 157.710938 50.097656 157.691406 50.136719 L 157.6875 50.148438 "/>
<path style=" stroke:none;fill-rule:nonzero;fill:rgb(53.69873%,77.2995%,25.099182%);fill-opacity:1;" d="M 166.296875 51.441406 L 165.546875 50.851563 C 165.742188 50.65625 170.277344 46.171875 174.253906 46.171875 C 174.347656 46.171875 174.441406 46.175781 174.53125 46.179688 C 175.863281 46.253906 176.964844 46.839844 177.808594 47.921875 L 176.984375 48.425781 C 176.316406 47.5625 175.496094 47.117188 174.472656 47.0625 C 170.914063 46.871094 166.339844 51.394531 166.296875 51.441406 "/>
<path style=" stroke:none;fill-rule:nonzero;fill:rgb(53.69873%,77.2995%,25.099182%);fill-opacity:1;" d="M 172.511719 52.410156 L 171.757813 51.824219 C 171.808594 51.777344 172.949219 50.621094 174.464844 49.519531 C 176.582031 47.980469 178.328125 47.335938 179.65625 47.601563 C 180.71875 47.816406 181.429688 48.570313 181.828125 49.847656 L 181.820313 49.90625 L 181.820313 49.226563 L 181.820313 50.027344 C 181.820313 49.109375 180.578125 48.597656 179.910156 48.464844 C 177.832031 48.046875 173.734375 51.171875 172.511719 52.410156 "/>
<path style=" stroke:none;fill-rule:nonzero;fill:rgb(53.69873%,77.2995%,25.099182%);fill-opacity:1;" d="M 178.621094 52.605469 C 179.378906 52.980469 180.160156 53.210938 180.96875 53.292969 C 183.269531 53.527344 185.191406 52.503906 185.953125 52.023438 C 185.265625 51.210938 184.441406 50.753906 183.5 50.671875 C 181.515625 50.5 179.457031 51.941406 178.621094 52.605469 M 181.671875 54.214844 C 181.40625 54.214844 181.140625 54.199219 180.871094 54.171875 C 178.492188 53.933594 176.339844 52.632813 174.464844 50.308594 L 175.28125 49.792969 C 176.058594 50.761719 176.886719 51.535156 177.753906 52.105469 C 178.527344 51.457031 181.027344 49.566406 183.597656 49.792969 C 184.980469 49.914063 186.144531 50.613281 187.058594 51.878906 L 187.289063 52.199219 L 186.96875 52.449219 C 186.867188 52.527344 184.679688 54.210938 181.671875 54.214844 "/>
<path style=" stroke:none;fill-rule:nonzero;fill:rgb(53.69873%,77.2995%,25.099182%);fill-opacity:1;" d="M 161.5 50.664063 L 160.722656 50.109375 C 160.929688 49.882813 165.851563 44.507813 169.609375 44.71875 C 170.707031 44.78125 171.597656 45.289063 172.253906 46.234375 L 172.265625 46.253906 L 172.597656 46.789063 L 171.71875 47.214844 L 171.394531 46.6875 C 170.914063 46 170.308594 45.644531 169.546875 45.601563 C 166.855469 45.449219 162.824219 49.207031 161.5 50.664063 "/>
<path style=" stroke:none;fill-rule:nonzero;fill:rgb(53.69873%,77.2995%,25.099182%);fill-opacity:1;" d="M 171.953125 52.585938 C 171.882813 52.585938 171.808594 52.578125 171.738281 52.5625 C 171.339844 52.472656 170.765625 52.132813 169.882813 50.296875 C 169.429688 49.351563 169.105469 48.449219 169.089844 48.414063 L 170.046875 48.144531 C 170.046875 48.152344 170.359375 49.019531 170.785156 49.914063 C 171.566406 51.550781 171.96875 51.699219 171.984375 51.703125 C 171.953125 51.691406 171.890625 51.703125 171.867188 51.722656 L 172.5625 52.355469 C 172.386719 52.507813 172.175781 52.585938 171.953125 52.585938 "/>
<path style=" stroke:none;fill-rule:nonzero;fill:rgb(53.69873%,77.2995%,25.099182%);fill-opacity:1;" d="M 146.753906 56.183594 L 145.851563 55.8125 C 145.882813 55.746094 146.726563 54.136719 148.449219 52.695313 C 150.769531 50.761719 153.554688 50.078125 156.511719 50.71875 L 156.277344 51.578125 C 153.628906 51.003906 151.226563 51.597656 149.136719 53.339844 C 147.554688 54.664063 146.765625 56.164063 146.753906 56.183594 "/>
<path style=" stroke:none;fill-rule:nonzero;fill:rgb(53.69873%,77.2995%,25.099182%);fill-opacity:1;" d="M 150.703125 56.1875 C 150.652344 56.082031 149.367188 53.628906 150.191406 52.039063 C 150.507813 51.4375 151.058594 51.035156 151.839844 50.847656 L 152.105469 51.699219 C 151.613281 51.820313 151.285156 52.050781 151.101563 52.410156 C 150.578125 53.417969 151.289063 55.203125 151.609375 55.808594 "/>
<path style=" stroke:none;fill-rule:nonzero;fill:rgb(53.69873%,77.2995%,25.099182%);fill-opacity:1;" d="M 153.636719 55.75 L 152.683594 55.484375 C 152.746094 55.304688 154.300781 51.050781 157.386719 49.96875 C 158.585938 49.550781 159.84375 49.660156 161.117188 50.289063 L 161.152344 50.308594 L 161.949219 50.777344 L 161.394531 51.515625 L 160.613281 51.054688 C 159.605469 50.558594 158.667969 50.472656 157.757813 50.792969 C 155.113281 51.71875 153.652344 55.710938 153.636719 55.75 "/>
<path style=" stroke:none;fill-rule:nonzero;fill:rgb(53.69873%,77.2995%,25.099182%);fill-opacity:1;" d="M 159.34375 54.796875 L 158.402344 54.496094 C 158.460938 54.351563 159.863281 50.992188 162.664063 50.421875 C 164.148438 50.121094 165.695313 50.65625 167.269531 52.011719 L 166.570313 52.644531 C 165.257813 51.515625 164.015625 51.054688 162.886719 51.285156 C 160.613281 51.75 159.355469 54.765625 159.34375 54.796875 "/>
<path style=" stroke:none;fill-rule:nonzero;fill:rgb(53.69873%,77.2995%,25.099182%);fill-opacity:1;" d="M 162.039063 56.292969 L 161.300781 55.699219 C 161.46875 55.535156 165.414063 51.722656 169.425781 51.59375 C 170.871094 51.550781 172.148438 51.984375 173.21875 52.894531 L 173.269531 52.9375 L 173.671875 53.546875 L 172.804688 53.992188 L 172.476563 53.492188 C 171.609375 52.773438 170.621094 52.441406 169.460938 52.480469 C 165.867188 52.59375 162.078125 56.257813 162.039063 56.292969 "/>
<path style=" stroke:none;fill-rule:nonzero;fill:rgb(53.69873%,77.2995%,25.099182%);fill-opacity:1;" d="M 167.082031 57.070313 L 166.761719 56.230469 L 170.078125 55.246094 C 170.441406 54.792969 171.71875 53.402344 173.730469 53.253906 C 175.46875 53.121094 177.246094 53.945313 179.011719 55.703125 L 179.019531 55.714844 L 179.351563 56.066406 L 178.585938 56.636719 L 178.257813 56.285156 C 176.71875 54.757813 175.226563 54.03125 173.820313 54.132813 C 171.96875 54.269531 170.832031 55.839844 170.820313 55.851563 L 170.726563 55.984375 L 170.554688 56.035156 "/>
<path style=" stroke:none;fill-rule:nonzero;fill:rgb(53.69873%,77.2995%,25.099182%);fill-opacity:1;" d="M 187.300781 61.527344 L 186.984375 61.054688 C 185.992188 59.933594 184.820313 59.308594 183.503906 59.195313 C 180.894531 58.972656 178.511719 60.78125 178.488281 60.800781 L 178.097656 61.105469 L 175.339844 58.054688 L 176.121094 57.5 L 178.242188 59.851563 C 179.105469 59.285156 181.226563 58.109375 183.601563 58.3125 C 185.214844 58.453125 186.621094 59.199219 187.792969 60.53125 L 187.8125 60.554688 L 188.160156 61.078125 "/>
<path style=" stroke:none;fill-rule:nonzero;fill:rgb(53.69873%,77.2995%,25.099182%);fill-opacity:1;" d="M 183.820313 66.578125 L 181.820313 66.578125 L 181.820313 62.046875 L 188.125 60.871094 C 188.160156 60.867188 189.050781 60.765625 189.820313 61.34375 C 190.460938 61.828125 190.820313 62.625 190.820313 63.703125 L 190.820313 64.578125 L 188.820313 64.578125 L 188.820313 63.71875 C 188.820313 62.925781 189.097656 62.339844 188.695313 62.027344 C 188.308594 61.726563 188.59375 61.742188 188.507813 61.746094 L 183.820313 62.765625 "/>
<path style=" stroke:none;fill-rule:nonzero;fill:rgb(53.69873%,77.2995%,25.099182%);fill-opacity:1;" d="M 178.640625 55.445313 L 177.679688 55.199219 C 177.761719 54.941406 177.570313 53.851563 177.339844 52.992188 L 178.3125 52.789063 C 178.4375 53.257813 178.835938 54.835938 178.640625 55.445313 "/>
<path style=" stroke:none;fill-rule:nonzero;fill:rgb(53.69873%,77.2995%,25.099182%);fill-opacity:1;" d="M 191.953125 61.460938 C 191.664063 61.460938 191.371094 61.414063 191.082031 61.320313 C 188.476563 60.480469 186.847656 55.953125 186.777344 55.761719 L 187.730469 55.496094 C 188.15625 56.691406 189.644531 59.917969 191.425781 60.488281 C 191.894531 60.640625 192.355469 60.589844 192.828125 60.335938 L 193.113281 61.03125 C 192.632813 61.304688 192.449219 61.460938 191.953125 61.460938 "/>
<path style=" stroke:none;fill-rule:nonzero;fill:rgb(53.69873%,77.2995%,25.099182%);fill-opacity:1;" d="M 185.820313 58.578125 L 184.820313 58.578125 L 184.820313 59.15625 C 184.820313 57.46875 184.875 55.609375 184.894531 55.527344 L 186.027344 55.722656 C 186.023438 55.738281 185.371094 57.460938 186.015625 58.914063 L 185.820313 58.992188 "/>
<path style=" stroke:none;fill-rule:nonzero;fill:rgb(53.69873%,77.2995%,25.099182%);fill-opacity:1;" d="M 181.527344 57.675781 C 181.234375 56.335938 182.546875 54.734375 182.695313 54.558594 L 183.496094 55.085938 L 183.09375 54.824219 L 183.496094 55.085938 C 183.160156 55.484375 182.332031 56.695313 182.507813 57.511719 "/>
<path style=" stroke:none;fill-rule:nonzero;fill:rgb(53.69873%,77.2995%,25.099182%);fill-opacity:1;" d="M 186.820313 67.242188 C 187.335938 68.035156 188.480469 69.320313 190.484375 69.320313 C 190.613281 69.320313 190.742188 69.3125 190.875 69.304688 C 191.648438 69.242188 192.054688 68.753906 192.265625 68.359375 C 192.730469 67.472656 192.59375 66.273438 191.941406 65.441406 C 191.445313 64.820313 189.835938 64.460938 187.511719 64.460938 C 186.8125 64.460938 186.183594 64.496094 185.746094 64.523438 Z M 190.484375 70.203125 C 188.601563 70.203125 186.984375 69.296875 185.925781 67.644531 L 185.902344 67.609375 L 184.386719 63.761719 L 185.007813 63.695313 C 185.046875 63.691406 186.144531 63.578125 187.511719 63.578125 C 190.28125 63.578125 192.046875 64.035156 192.757813 64.9375 C 193.621094 66.03125 193.789063 67.554688 193.171875 68.730469 C 192.726563 69.578125 191.925781 70.105469 190.96875 70.1875 C 190.804688 70.199219 190.644531 70.203125 190.484375 70.203125 "/>
<path style=" stroke:none;fill-rule:nonzero;fill:rgb(53.69873%,77.2995%,25.099182%);fill-opacity:1;" d="M 181.34375 74.292969 L 181.101563 73.386719 C 181.039063 73.167969 180.769531 72.5 180.320313 72.335938 C 180.234375 72.304688 179.988281 72.214844 179.492188 72.484375 L 178.96875 72.765625 L 178.761719 72.257813 C 178.445313 71.484375 178.652344 70.1875 177.886719 69.980469 C 177.746094 69.941406 176.527344 69.917969 176.21875 70.121094 L 175.496094 70.585938 L 175.421875 69.800781 C 175.421875 69.792969 175.351563 69.078125 175.15625 68.351563 C 174.824219 67.105469 174.460938 67.011719 174.453125 67.011719 C 174.390625 66.996094 174.113281 66.214844 173.65625 66.832031 L 172.78125 68.015625 L 172.738281 66.601563 C 172.691406 65.089844 172.21875 63.710938 171.320313 63.414063 C 170.902344 63.277344 170.269531 63.597656 169.527344 64.316406 L 168.871094 64.953125 L 168.667969 64.113281 C 168.257813 62.394531 167.371094 60.523438 166.714844 60.480469 C 166.605469 60.472656 166.007813 60.535156 165.152344 62.523438 L 164.527344 63.96875 L 164.195313 62.449219 C 164.054688 61.835938 163.546875 60.539063 162.84375 60.414063 C 162.53125 60.359375 161.828125 60.5 160.667969 62.058594 L 160.1875 62.703125 L 159.804688 62.011719 C 159.792969 61.996094 158.855469 60.355469 157.300781 60.0625 C 156.460938 59.902344 155.558594 60.167969 154.617188 60.851563 L 154.363281 61.035156 L 154.074219 60.902344 C 153.976563 60.855469 151.664063 59.847656 150.386719 61.421875 C 150.410156 61.835938 150.40625 63.152344 149.78125 63.773438 C 149.460938 64.101563 149.015625 64.578125 148.496094 64.578125 L 148.300781 64.578125 L 148.152344 64.15625 C 148.128906 64.140625 147.527344 63.492188 146.914063 62.894531 C 145.726563 61.722656 145.582031 61.132813 145.578125 60.84375 C 145.5625 60.039063 145.605469 58.488281 146.015625 57.359375 C 146.316406 56.539063 145.882813 55.878906 145.878906 55.871094 L 146.722656 55.390625 C 146.753906 55.429688 147.417969 56.378906 146.96875 57.601563 C 146.589844 58.644531 146.5625 60.15625 146.574219 60.757813 C 146.578125 61.066406 147.539063 62.125 148.671875 63.074219 C 148.820313 63.046875 148.933594 62.984375 149.03125 62.886719 C 149.421875 62.496094 149.414063 61.648438 149.375 61.355469 L 149.355469 61.199219 L 149.453125 61.066406 C 150.183594 60.054688 151.300781 59.570313 152.699219 59.671875 C 153.347656 59.71875 153.902344 59.882813 154.226563 59.996094 C 155.335938 59.261719 156.4375 58.992188 157.515625 59.199219 C 158.847656 59.453125 159.78125 60.378906 160.28125 61.011719 C 161.253906 59.871094 162.160156 59.394531 163.035156 59.546875 C 163.890625 59.695313 164.4375 60.433594 164.761719 61.105469 C 165.390625 60.03125 166.046875 59.546875 166.789063 59.597656 C 167.625 59.65625 168.339844 60.410156 168.976563 61.910156 C 169.167969 62.363281 169.320313 62.808594 169.429688 63.167969 C 170.246094 62.558594 170.996094 62.363281 171.667969 62.585938 C 172.515625 62.863281 173.121094 62.914063 173.464844 64.46875 C 173.546875 64.835938 173.605469 65.191406 173.644531 65.503906 C 173.941406 65.308594 174.300781 65.183594 174.699219 65.273438 C 175.34375 65.414063 175.8125 66.949219 176.132813 68.15625 C 176.222656 68.5 176.289063 68.835938 176.335938 69.105469 C 176.613281 69.050781 177.894531 69.058594 178.179688 69.136719 C 179.3125 69.441406 179.128906 70.78125 179.492188 71.507813 C 180.015625 71.347656 180.425781 71.414063 180.703125 71.519531 C 181.203125 71.703125 181.535156 72.085938 181.75 72.4375 L 183.074219 71.972656 L 183.242188 72.019531 C 185.050781 72.511719 186.40625 72.511719 187.167969 72.019531 C 187.726563 71.660156 187.828125 71.121094 187.847656 70.941406 C 186.988281 68.640625 185.472656 67.148438 183.339844 66.503906 C 181.714844 66.007813 180.308594 66.214844 180.292969 66.214844 L 180.210938 66.230469 L 179.449219 66.125 L 179.597656 65.25 L 180.207031 65.332031 C 180.570313 65.289063 181.980469 65.164063 183.613281 65.648438 C 185.332031 66.15625 187.613281 67.457031 188.808594 70.746094 L 188.820313 70.8125 L 188.820313 70.882813 C 188.820313 70.925781 188.828125 72.023438 187.757813 72.722656 C 186.746094 73.390625 185.1875 73.453125 183.109375 72.910156 L 182.296875 73.199219 "/>
<path style=" stroke:none;fill-rule:nonzero;fill:rgb(53.69873%,77.2995%,25.099182%);fill-opacity:1;" d="M 149.355469 61.222656 C 149.003906 59.511719 146.304688 56.738281 146.277344 56.710938 L 147.035156 56.128906 C 147.15625 56.25 149.9375 59.117188 150.339844 61.066406 "/>
<path style=" stroke:none;fill-rule:nonzero;fill:rgb(53.69873%,77.2995%,25.099182%);fill-opacity:1;" d="M 152.683594 60.34375 C 151.660156 57.675781 150.753906 57.578125 150.414063 57.578125 L 150.375 57.578125 C 149.648438 57.578125 148.941406 58.378906 148.75 58.75 L 147.839844 58.261719 C 147.945313 58.054688 148.921875 56.203125 150.464844 56.273438 C 151.683594 56.328125 152.722656 57.597656 153.632813 59.96875 "/>
<path style=" stroke:none;fill-rule:nonzero;fill:rgb(53.69873%,77.2995%,25.099182%);fill-opacity:1;" d="M 157.632813 60.035156 C 156.046875 57.632813 154.40625 56.300781 152.898438 56.191406 C 151.601563 56.09375 150.804688 56.925781 150.796875 56.9375 L 150.027344 56.371094 C 150.074219 56.320313 151.171875 55.175781 152.980469 55.308594 C 154.855469 55.445313 156.710938 56.886719 158.496094 59.589844 "/>
<path style=" stroke:none;fill-rule:nonzero;fill:rgb(53.69873%,77.2995%,25.099182%);fill-opacity:1;" d="M 162.65625 59.832031 L 161.65625 59.792969 C 161.769531 57.65625 161.242188 56.242188 160.09375 55.59375 C 157.910156 54.367188 154.097656 56.113281 154.054688 56.132813 L 153.59375 55.347656 C 153.769531 55.269531 157.960938 53.34375 160.628906 54.847656 C 162.105469 55.675781 162.785156 57.355469 162.65625 59.832031 "/>
<path style=" stroke:none;fill-rule:nonzero;fill:rgb(53.69873%,77.2995%,25.099182%);fill-opacity:1;" d="M 166.96875 60.355469 C 166.878906 57.863281 164.683594 53.871094 164.664063 53.832031 L 165.5625 53.441406 C 165.65625 53.609375 167.871094 57.648438 167.96875 60.324219 "/>
<path style=" stroke:none;fill-rule:nonzero;fill:rgb(53.69873%,77.2995%,25.099182%);fill-opacity:1;" d="M 172.738281 61.320313 C 172.632813 58.902344 169.875 56.328125 169.84375 56.304688 L 170.566406 55.691406 C 170.691406 55.804688 173.621094 58.527344 173.738281 61.285156 "/>
<path style=" stroke:none;fill-rule:nonzero;fill:rgb(53.69873%,77.2995%,25.099182%);fill-opacity:1;" d="M 173.183594 59.171875 L 172.710938 58.390625 L 175.152344 57.238281 C 175.46875 56.976563 177.007813 55.800781 179.078125 55.917969 C 180.652344 56.003906 182.109375 56.804688 183.410156 58.296875 L 182.621094 58.839844 C 181.503906 57.5625 180.296875 56.875 179.023438 56.800781 C 177.199219 56.695313 175.8125 57.902344 175.796875 57.910156 L 175.746094 57.957031 L 175.679688 57.988281 "/>
<path style=" stroke:none;fill-rule:nonzero;fill:rgb(53.69873%,77.2995%,25.099182%);fill-opacity:1;" d="M 178.785156 64.539063 L 177.808594 64.363281 L 177.894531 63.984375 L 177.695313 60.699219 L 178.695313 60.652344 L 178.898438 64.054688 "/>
<path style=" stroke:none;fill-rule:nonzero;fill:rgb(53.69873%,77.2995%,25.099182%);fill-opacity:1;" d="M 182.527344 72.28125 C 181.511719 67.898438 178.664063 64.570313 174.058594 62.382813 C 170.613281 60.746094 167.441406 60.40625 167.410156 60.402344 L 167.527344 59.519531 C 167.660156 59.535156 170.917969 59.886719 174.53125 61.601563 C 176.660156 62.613281 178.46875 63.894531 179.90625 65.402344 C 181.703125 67.289063 182.914063 69.546875 183.503906 72.101563 "/>
<path style=" stroke:none;fill-rule:nonzero;fill:rgb(53.69873%,77.2995%,25.099182%);fill-opacity:1;" d="M 188.03125 61.03125 L 187.429688 60.324219 C 188.109375 59.871094 188.621094 59.144531 188.628906 59.136719 L 189.476563 59.601563 C 189.453125 59.636719 188.855469 60.480469 188.03125 61.03125 "/>
<path style=" stroke:none;fill-rule:nonzero;fill:rgb(53.69873%,77.2995%,25.099182%);fill-opacity:1;" d="M 185.554688 56.074219 C 185.09375 56.074219 184.652344 56.015625 184.234375 55.898438 C 182.601563 55.441406 181.949219 54.253906 181.921875 54.203125 L 182.824219 53.824219 C 182.84375 53.859375 183.332031 54.726563 184.550781 55.058594 C 185.566406 55.335938 186.789063 55.164063 188.195313 54.554688 L 186.042969 52.871094 L 186.707031 52.207031 L 189.921875 54.726563 L 189.3125 55.03125 C 187.941406 55.722656 186.683594 56.074219 185.554688 56.074219 "/>
<path style=" stroke:none;fill-rule:nonzero;fill:rgb(53.69873%,77.2995%,25.099182%);fill-opacity:1;" d="M 166.53125 59.578125 L 162.324219 59.578125 L 162.300781 59.992188 L 157.84375 59.796875 L 157.945313 59.050781 L 162.371094 59.578125 "/>
<path style=" stroke:none;fill-rule:nonzero;fill:rgb(53.69873%,77.2995%,25.099182%);fill-opacity:1;" d="M 182.621094 78.90625 L 182.339844 78.796875 C 182.269531 78.769531 180.882813 78.199219 180.601563 75.996094 C 180.140625 76.371094 179.570313 76.671875 179.03125 76.503906 C 178.464844 76.328125 178.167969 75.765625 178.113281 74.71875 C 177.828125 74.871094 177.488281 74.96875 177.121094 74.894531 C 176.300781 74.734375 175.746094 73.828125 175.40625 72.074219 C 175.003906 72.46875 174.476563 72.800781 173.902344 72.699219 C 173.0625 72.546875 172.5625 71.621094 172.308594 69.722656 C 171.859375 69.867188 171.257813 69.953125 170.636719 69.71875 C 169.710938 69.363281 169.066406 68.390625 168.722656 66.828125 C 168.457031 67.066406 168.113281 67.25 167.695313 67.277344 C 166.875 67.324219 166.058594 66.738281 165.222656 65.492188 C 165.074219 65.835938 164.828125 66.144531 164.421875 66.277344 C 163.445313 66.605469 162.164063 65.816406 160.289063 63.726563 C 159.90625 64.160156 159.253906 64.695313 158.335938 64.742188 C 157.214844 64.796875 156.058594 64.113281 154.878906 62.710938 C 154.875 62.742188 154.867188 62.773438 154.855469 62.808594 C 154.589844 63.804688 154.117188 64.394531 153.460938 64.574219 C 152.496094 64.835938 151.367188 64.15625 150.011719 62.496094 L 149.988281 62.472656 L 149.660156 62.007813 L 150.511719 61.539063 L 150.828125 61.988281 C 152.308594 63.785156 152.992188 63.773438 153.167969 63.726563 C 153.71875 63.578125 154.027344 62.296875 154.0625 61.480469 L 154.128906 60.015625 L 154.988281 61.261719 C 156.511719 63.464844 157.609375 63.890625 158.273438 63.855469 C 159.226563 63.8125 159.792969 62.777344 159.800781 62.769531 L 160.152344 62.109375 L 160.648438 62.6875 C 163.179688 65.640625 163.984375 65.480469 164.0625 65.453125 C 164.328125 65.363281 164.472656 64.628906 164.421875 64.054688 L 164.210938 61.597656 L 165.375 63.835938 C 166.636719 66.253906 167.421875 66.402344 167.628906 66.390625 C 168.054688 66.367188 168.429688 65.683594 168.539063 65.375 L 169.277344 63.257813 L 169.515625 65.464844 C 169.789063 68.050781 170.585938 68.726563 171.03125 68.902344 C 171.691406 69.160156 172.417969 68.679688 172.425781 68.675781 L 173.148438 68.191406 L 173.230469 68.992188 C 173.488281 71.6875 174.09375 71.828125 174.101563 71.828125 C 174.332031 71.871094 174.921875 71.300781 175.289063 70.679688 L 176.050781 69.382813 L 176.226563 70.835938 C 176.585938 73.800781 177.261719 74.015625 177.339844 74.03125 C 177.566406 74.074219 178.007813 73.671875 178.207031 73.378906 L 179.261719 71.820313 L 179.136719 73.585938 C 179.015625 75.28125 179.320313 75.578125 179.359375 75.578125 L 179.363281 75.578125 C 179.597656 75.578125 180.222656 75.101563 180.652344 74.550781 L 181.640625 73.3125 L 181.5625 74.855469 C 181.476563 76.703125 182.121094 77.515625 182.5 77.820313 C 183.511719 76.945313 183.863281 75.894531 183.539063 74.6875 C 183.269531 73.671875 182.628906 72.933594 182.621094 72.925781 L 183.410156 72.378906 C 183.441406 72.417969 184.195313 73.285156 184.515625 74.488281 C 184.816406 75.632813 184.777344 77.296875 182.859375 78.730469 "/>
<path style=" stroke:none;fill-rule:nonzero;fill:rgb(53.69873%,77.2995%,25.099182%);fill-opacity:1;" d="M 179.65625 77.074219 C 179.613281 77.035156 175.332031 73.160156 168.769531 69.734375 C 162.738281 66.589844 153.492188 63.046875 143.679688 64.71875 L 143.632813 64.578125 L 142.816406 64.578125 L 143.617188 64.910156 L 143.539063 64.773438 C 148.003906 64.773438 152.71875 63.8125 157.550781 64.933594 C 161.417969 65.832031 165.371094 67.132813 169.296875 69.179688 C 175.96875 72.664063 180.328125 76.515625 180.375 76.554688 "/>
<path style=" stroke:none;fill-rule:nonzero;fill:rgb(53.69873%,77.2995%,25.099182%);fill-opacity:1;" d="M 138.59375 61.6875 L 145.820313 59.960938 L 145.820313 61.140625 L 139.808594 62.285156 Z M 138.59375 61.6875 "/>
<path style=" stroke:none;fill-rule:nonzero;fill:rgb(53.69873%,77.2995%,25.099182%);fill-opacity:1;" d="M 146.074219 58.308594 C 146.074219 58.308594 139.539063 60.515625 138.730469 61.144531 L 137.394531 60.34375 L 146.089844 57.265625 L 145.394531 56.652344 L 136.253906 59.558594 L 134.945313 58.882813 L 146.074219 55.617188 L 146.300781 56.207031 "/>
<path style=" stroke:none;fill-rule:nonzero;fill:rgb(54.098511%,76.899719%,26.699829%);fill-opacity:1;" d="M 129.195313 64.558594 L 127.195313 62.738281 L 129.757813 63.832031 "/>
<path style=" stroke:none;fill-rule:nonzero;fill:rgb(54.098511%,76.899719%,26.699829%);fill-opacity:1;" d="M 121.582031 67.582031 L 120.835938 68.15625 L 119.8125 66.425781 "/>
</g>
</svg>
